M48
; DRILL file KiCad 10.0.6 date 2026-09-08T23:56:09
; FORMAT={-:-/ absolute / metric / decimal}
; #@! TF.CreationDate,2026-09-08T23:56:09+09:00
; #@! TF.GenerationSoftware,Kicad,Pcbnew,10.0.6
; #@! TF.FileFunction,Plated,1,2,PTH
FMAT,2
METRIC
; #@! TA.AperFunction,Plated,PTH,ViaDrill
T1C0.300
; #@! TA.AperFunction,Plated,PTH,ComponentDrill
T2C1.000
%
G90
G05
T1
X12.118Y-16.881
X31.183Y-5.227
X35.536Y-18.833
X42.444Y-19.46
T2
X4.0Y-10.0
X4.0Y-12.54
X4.0Y-22.0
X4.0Y-24.54
X4.0Y-31.0
X4.0Y-33.54
X4.0Y-36.08
X4.0Y-38.62
X4.0Y-41.16
X4.0Y-49.0
X4.0Y-51.54
X4.0Y-54.08
X12.0Y-66.0
X14.54Y-66.0
X17.08Y-66.0
X35.0Y-66.0
X37.54Y-66.0
X40.08Y-66.0
X42.62Y-66.0
X45.16Y-66.0
X47.7Y-66.0
X71.0Y-8.0
X71.0Y-10.54
X71.0Y-16.5
X71.0Y-19.04
X71.0Y-21.58
X71.0Y-24.12
X71.0Y-26.66
X71.0Y-29.2
X71.0Y-31.74
X71.0Y-34.28
X71.0Y-36.82
X71.0Y-43.0
X71.0Y-45.54
X71.0Y-48.08
X71.0Y-55.0
X71.0Y-57.54
M30
