%TF.GenerationSoftware,KiCad,Pcbnew,10.0.6*%
%TF.CreationDate,2026-09-08T23:56:09+09:00*%
%TF.ProjectId,Gizmo_Hub,47697a6d-6f5f-4487-9562-2e6b69636164,rev?*%
%TF.SameCoordinates,Original*%
%TF.FileFunction,Soldermask,Top*%
%TF.FilePolarity,Negative*%
%FSLAX46Y46*%
G04 Gerber Fmt 4.6, Leading zero omitted, Abs format (unit mm)*
G04 Created by KiCad (PCBNEW 10.0.6) date 2026-09-08 23:56:09*
%MOMM*%
%LPD*%
G01*
G04 APERTURE LIST*
G04 Aperture macros list*
%AMRoundRect*
0 Rectangle with rounded corners*
0 $1 Rounding radius*
0 $2 $3 $4 $5 $6 $7 $8 $9 X,Y pos of 4 corners*
0 Add a 4 corners polygon primitive as box body*
4,1,4,$2,$3,$4,$5,$6,$7,$8,$9,$2,$3,0*
0 Add four circle primitives for the rounded corners*
1,1,$1+$1,$2,$3*
1,1,$1+$1,$4,$5*
1,1,$1+$1,$6,$7*
1,1,$1+$1,$8,$9*
0 Add four rect primitives between the rounded corners*
20,1,$1+$1,$2,$3,$4,$5,0*
20,1,$1+$1,$4,$5,$6,$7,0*
20,1,$1+$1,$6,$7,$8,$9,0*
20,1,$1+$1,$8,$9,$2,$3,0*%
G04 Aperture macros list end*
%ADD10C,2.200000*%
%ADD11R,1.800000X1.800000*%
%ADD12C,1.800000*%
%ADD13RoundRect,0.250000X-0.262500X-0.450000X0.262500X-0.450000X0.262500X0.450000X-0.262500X0.450000X0*%
%ADD14RoundRect,0.550800X-0.875000X-0.500000X0.875000X-0.500000X0.875000X0.500000X-0.875000X0.500000X0*%
%ADD15C,1.500000*%
%ADD16RoundRect,0.250000X-0.250000X-0.475000X0.250000X-0.475000X0.250000X0.475000X-0.250000X0.475000X0*%
G04 APERTURE END LIST*
D10*
%TO.C,H4*%
X72000000Y-67000000D03*
%TD*%
D11*
%TO.C,J10*%
X71000000Y-55000000D03*
D12*
X71000000Y-57540000D03*
%TD*%
D13*
%TO.C,R1*%
X25087500Y-34000000D03*
X26912500Y-34000000D03*
%TD*%
D14*
%TO.C,U1*%
X29435000Y-3980000D03*
X29435000Y-6520000D03*
X29435000Y-9060000D03*
X29435000Y-11600000D03*
X29435000Y-14140000D03*
X29435000Y-16680000D03*
X29435000Y-19220000D03*
X45600000Y-19220000D03*
X45600000Y-16680000D03*
X45600000Y-14140000D03*
X45600000Y-11600000D03*
X45600000Y-9060000D03*
X45600000Y-6520000D03*
X45600000Y-3980000D03*
%TD*%
D10*
%TO.C,H2*%
X72000000Y-3000000D03*
%TD*%
D15*
%TO.C,TP1*%
X35000000Y-30000000D03*
%TD*%
D11*
%TO.C,J5*%
X4000000Y-49000000D03*
D12*
X4000000Y-51540000D03*
X4000000Y-54080000D03*
%TD*%
D11*
%TO.C,J9*%
X71000000Y-8000000D03*
D12*
X71000000Y-10540000D03*
%TD*%
D11*
%TO.C,J7*%
X35000000Y-66000000D03*
D12*
X37540000Y-66000000D03*
X40080000Y-66000000D03*
X42620000Y-66000000D03*
X45160000Y-66000000D03*
X47700000Y-66000000D03*
%TD*%
D11*
%TO.C,J6*%
X12000000Y-66000000D03*
D12*
X14540000Y-66000000D03*
X17080000Y-66000000D03*
%TD*%
D11*
%TO.C,J4*%
X4000000Y-22000000D03*
D12*
X4000000Y-24540000D03*
%TD*%
D11*
%TO.C,J2*%
X71000000Y-43000000D03*
D12*
X71000000Y-45540000D03*
X71000000Y-48080000D03*
%TD*%
D13*
%TO.C,R2*%
X25087500Y-39000000D03*
X26912500Y-39000000D03*
%TD*%
D16*
%TO.C,C1*%
X33050000Y-34000000D03*
X34950000Y-34000000D03*
%TD*%
D15*
%TO.C,TP2*%
X40000000Y-30000000D03*
%TD*%
D10*
%TO.C,H3*%
X3000000Y-67000000D03*
%TD*%
D13*
%TO.C,R5*%
X43087500Y-43000000D03*
X44912500Y-43000000D03*
%TD*%
%TO.C,R3*%
X25087500Y-44000000D03*
X26912500Y-44000000D03*
%TD*%
D10*
%TO.C,H1*%
X3000000Y-3000000D03*
%TD*%
D11*
%TO.C,J3*%
X4000000Y-31000000D03*
D12*
X4000000Y-33540000D03*
X4000000Y-36080000D03*
X4000000Y-38620000D03*
X4000000Y-41160000D03*
%TD*%
D11*
%TO.C,J1*%
X71000000Y-16500000D03*
D12*
X71000000Y-19040000D03*
X71000000Y-21580000D03*
X71000000Y-24120000D03*
X71000000Y-26660000D03*
X71000000Y-29200000D03*
X71000000Y-31740000D03*
X71000000Y-34280000D03*
X71000000Y-36820000D03*
%TD*%
D11*
%TO.C,J8*%
X4000000Y-10000000D03*
D12*
X4000000Y-12540000D03*
%TD*%
D13*
%TO.C,R4*%
X35087500Y-43000000D03*
X36912500Y-43000000D03*
%TD*%
M02*
