%TF.GenerationSoftware,KiCad,Pcbnew,10.0.6*%
%TF.CreationDate,2026-09-08T23:56:09+09:00*%
%TF.ProjectId,Gizmo_Hub,47697a6d-6f5f-4487-9562-2e6b69636164,rev?*%
%TF.SameCoordinates,Original*%
%TF.FileFunction,Copper,L1,Top*%
%TF.FilePolarity,Positive*%
%FSLAX46Y46*%
G04 Gerber Fmt 4.6, Leading zero omitted, Abs format (unit mm)*
G04 Created by KiCad (PCBNEW 10.0.6) date 2026-09-08 23:56:09*
%MOMM*%
%LPD*%
G01*
G04 APERTURE LIST*
G04 Aperture macros list*
%AMRoundRect*
0 Rectangle with rounded corners*
0 $1 Rounding radius*
0 $2 $3 $4 $5 $6 $7 $8 $9 X,Y pos of 4 corners*
0 Add a 4 corners polygon primitive as box body*
4,1,4,$2,$3,$4,$5,$6,$7,$8,$9,$2,$3,0*
0 Add four circle primitives for the rounded corners*
1,1,$1+$1,$2,$3*
1,1,$1+$1,$4,$5*
1,1,$1+$1,$6,$7*
1,1,$1+$1,$8,$9*
0 Add four rect primitives between the rounded corners*
20,1,$1+$1,$2,$3,$4,$5,0*
20,1,$1+$1,$4,$5,$6,$7,0*
20,1,$1+$1,$6,$7,$8,$9,0*
20,1,$1+$1,$8,$9,$2,$3,0*%
G04 Aperture macros list end*
%TA.AperFunction,ComponentPad*%
%ADD10R,1.800000X1.800000*%
%TD*%
%TA.AperFunction,ComponentPad*%
%ADD11C,1.800000*%
%TD*%
%TA.AperFunction,SMDPad,CuDef*%
%ADD12RoundRect,0.250000X-0.262500X-0.450000X0.262500X-0.450000X0.262500X0.450000X-0.262500X0.450000X0*%
%TD*%
%TA.AperFunction,SMDPad,CuDef*%
%ADD13RoundRect,0.500000X-0.875000X-0.500000X0.875000X-0.500000X0.875000X0.500000X-0.875000X0.500000X0*%
%TD*%
%TA.AperFunction,SMDPad,CuDef*%
%ADD14C,1.500000*%
%TD*%
%TA.AperFunction,SMDPad,CuDef*%
%ADD15RoundRect,0.250000X-0.250000X-0.475000X0.250000X-0.475000X0.250000X0.475000X-0.250000X0.475000X0*%
%TD*%
%TA.AperFunction,ViaPad*%
%ADD16C,0.600000*%
%TD*%
%TA.AperFunction,Conductor*%
%ADD17C,0.250000*%
%TD*%
%TA.AperFunction,Conductor*%
%ADD18C,0.600000*%
%TD*%
G04 APERTURE END LIST*
D10*
%TO.P,J10,1*%
%TO.N,/D0_GPIO1_UNUSED*%
X71000000Y-55000000D03*
D11*
%TO.P,J10,2*%
%TO.N,/D3_GPIO4_UNUSED*%
X71000000Y-57540000D03*
%TD*%
D12*
%TO.P,R1,1*%
%TO.N,/BUTTON_ADC_D4_GPIO5*%
X25087500Y-34000000D03*
%TO.P,R1,2*%
%TO.N,/GND*%
X26912500Y-34000000D03*
%TD*%
D13*
%TO.P,U1,1*%
%TO.N,/D0_GPIO1_UNUSED*%
X29435000Y-3980000D03*
%TO.P,U1,2*%
%TO.N,/PTT_D1_GPIO2*%
X29435000Y-6520000D03*
%TO.P,U1,3*%
%TO.N,/HAPTIC_D2_GPIO3*%
X29435000Y-9060000D03*
%TO.P,U1,4*%
%TO.N,/D3_GPIO4_UNUSED*%
X29435000Y-11600000D03*
%TO.P,U1,5*%
%TO.N,/BUTTON_ADC_D4_GPIO5*%
X29435000Y-14140000D03*
%TO.P,U1,6*%
%TO.N,/BAT_SENSE_D5_GPIO6*%
X29435000Y-16680000D03*
%TO.P,U1,7*%
%TO.N,/DISP_DC_D6_GPIO43*%
X29435000Y-19220000D03*
%TO.P,U1,8*%
%TO.N,/DISP_CS_D7_GPIO44*%
X45600000Y-19220000D03*
%TO.P,U1,9*%
%TO.N,/DISP_SCK_D8_GPIO7*%
X45600000Y-16680000D03*
%TO.P,U1,10*%
%TO.N,/SPK_IN_D9_GPIO8*%
X45600000Y-14140000D03*
%TO.P,U1,11*%
%TO.N,/DISP_SDI_D10_GPIO9*%
X45600000Y-11600000D03*
%TO.P,U1,12*%
%TO.N,/3V3*%
X45600000Y-9060000D03*
%TO.P,U1,13*%
%TO.N,/GND*%
X45600000Y-6520000D03*
%TO.P,U1,14*%
%TO.N,/5V*%
X45600000Y-3980000D03*
%TD*%
D14*
%TO.P,TP1,1*%
%TO.N,/3V3*%
X35000000Y-30000000D03*
%TD*%
D10*
%TO.P,J5,1*%
%TO.N,/HAPTIC_D2_GPIO3*%
X4000000Y-49000000D03*
D11*
%TO.P,J5,2*%
%TO.N,/GND*%
X4000000Y-51540000D03*
%TO.P,J5,3*%
%TO.N,/3V3*%
X4000000Y-54080000D03*
%TD*%
D10*
%TO.P,J9,1*%
%TO.N,/5V*%
X71000000Y-8000000D03*
D11*
%TO.P,J9,2*%
%TO.N,/GND*%
X71000000Y-10540000D03*
%TD*%
D10*
%TO.P,J7,1*%
%TO.N,/5V*%
X35000000Y-66000000D03*
D11*
%TO.P,J7,2*%
X37540000Y-66000000D03*
%TO.P,J7,3*%
%TO.N,/GND*%
X40080000Y-66000000D03*
%TO.P,J7,4*%
X42620000Y-66000000D03*
%TO.P,J7,5*%
%TO.N,/3V3*%
X45160000Y-66000000D03*
%TO.P,J7,6*%
%TO.N,/GND*%
X47700000Y-66000000D03*
%TD*%
D10*
%TO.P,J6,1*%
%TO.N,/BAT+*%
X12000000Y-66000000D03*
D11*
%TO.P,J6,2*%
%TO.N,/GND*%
X14540000Y-66000000D03*
%TO.P,J6,3*%
%TO.N,/5V*%
X17080000Y-66000000D03*
%TD*%
D10*
%TO.P,J4,1*%
%TO.N,/PTT_D1_GPIO2*%
X4000000Y-22000000D03*
D11*
%TO.P,J4,2*%
%TO.N,/GND*%
X4000000Y-24540000D03*
%TD*%
D10*
%TO.P,J2,1*%
%TO.N,/SPK_IN_D9_GPIO8*%
X71000000Y-43000000D03*
D11*
%TO.P,J2,2*%
%TO.N,/3V3*%
X71000000Y-45540000D03*
%TO.P,J2,3*%
%TO.N,/GND*%
X71000000Y-48080000D03*
%TD*%
D12*
%TO.P,R2,1*%
%TO.N,/BUTTON_DOWN*%
X25087500Y-39000000D03*
%TO.P,R2,2*%
%TO.N,/BUTTON_ADC_D4_GPIO5*%
X26912500Y-39000000D03*
%TD*%
D15*
%TO.P,C1,1*%
%TO.N,/BUTTON_ADC_D4_GPIO5*%
X33050000Y-34000000D03*
%TO.P,C1,2*%
%TO.N,/GND*%
X34950000Y-34000000D03*
%TD*%
D14*
%TO.P,TP2,1*%
%TO.N,/GND*%
X40000000Y-30000000D03*
%TD*%
D12*
%TO.P,R5,1*%
%TO.N,/BAT_SENSE_D5_GPIO6*%
X43087500Y-43000000D03*
%TO.P,R5,2*%
%TO.N,/GND*%
X44912500Y-43000000D03*
%TD*%
%TO.P,R3,1*%
%TO.N,/BUTTON_SEL*%
X25087500Y-44000000D03*
%TO.P,R3,2*%
%TO.N,/BUTTON_ADC_D4_GPIO5*%
X26912500Y-44000000D03*
%TD*%
D10*
%TO.P,J3,1*%
%TO.N,/BUTTON_ADC_D4_GPIO5*%
X4000000Y-31000000D03*
D11*
%TO.P,J3,2*%
%TO.N,/BUTTON_DOWN*%
X4000000Y-33540000D03*
%TO.P,J3,3*%
%TO.N,/BUTTON_SEL*%
X4000000Y-36080000D03*
%TO.P,J3,4*%
%TO.N,/3V3*%
X4000000Y-38620000D03*
%TO.P,J3,5*%
%TO.N,/GND*%
X4000000Y-41160000D03*
%TD*%
D10*
%TO.P,J1,1*%
%TO.N,/5V*%
X71000000Y-16500000D03*
D11*
%TO.P,J1,2*%
%TO.N,/GND*%
X71000000Y-19040000D03*
%TO.P,J1,3*%
%TO.N,/DISP_CS_D7_GPIO44*%
X71000000Y-21580000D03*
%TO.P,J1,4*%
%TO.N,/3V3*%
X71000000Y-24120000D03*
%TO.P,J1,5*%
%TO.N,/DISP_DC_D6_GPIO43*%
X71000000Y-26660000D03*
%TO.P,J1,6*%
%TO.N,/DISP_SDI_D10_GPIO9*%
X71000000Y-29200000D03*
%TO.P,J1,7*%
%TO.N,/DISP_SCK_D8_GPIO7*%
X71000000Y-31740000D03*
%TO.P,J1,8*%
%TO.N,/3V3*%
X71000000Y-34280000D03*
%TO.P,J1,9*%
%TO.N,unconnected-(J1-SDO_{slash}_NC-Pad9)*%
X71000000Y-36820000D03*
%TD*%
D10*
%TO.P,J8,1*%
%TO.N,/5V*%
X4000000Y-10000000D03*
D11*
%TO.P,J8,2*%
%TO.N,/GND*%
X4000000Y-12540000D03*
%TD*%
D12*
%TO.P,R4,1*%
%TO.N,/BAT+*%
X35087500Y-43000000D03*
%TO.P,R4,2*%
%TO.N,/BAT_SENSE_D5_GPIO6*%
X36912500Y-43000000D03*
%TD*%
D16*
%TO.N,/D0_GPIO1_UNUSED*%
X31182900Y-5226700D03*
%TO.N,/D3_GPIO4_UNUSED*%
X35535700Y-18833000D03*
%TO.N,/HAPTIC_D2_GPIO3*%
X12118500Y-16881500D03*
%TO.N,/DISP_DC_D6_GPIO43*%
X42443800Y-19459800D03*
%TD*%
%TO.N,/D0_GPIO1_UNUSED*%
D17*
X29936200Y-3980000D02*
X31182900Y-5226700D01*
X29435000Y-3980000D02*
X29936200Y-3980000D01*
%TO.N,/D3_GPIO4_UNUSED*%
X29516600Y-11600000D02*
X35535700Y-17619100D01*
X29435000Y-11600000D02*
X29516600Y-11600000D01*
X35535700Y-17619100D02*
X35535700Y-18833000D01*
%TO.N,/BUTTON_ADC_D4_GPIO5*%
X26115200Y-35027700D02*
X25087500Y-34000000D01*
X25087500Y-34000000D02*
X8226700Y-34000000D01*
X26912500Y-39000000D02*
X26912500Y-44000000D01*
X30752100Y-31702000D02*
X33050000Y-34000000D01*
X26912500Y-35027700D02*
X26115200Y-35027700D01*
X8226700Y-34000000D02*
X5226700Y-31000000D01*
X27252100Y-28202100D02*
X30752100Y-31702000D01*
X29328600Y-14140000D02*
X27252100Y-16216500D01*
X30752100Y-31702000D02*
X27426400Y-35027700D01*
X29435000Y-14140000D02*
X29328600Y-14140000D01*
X27426400Y-35027700D02*
X26912500Y-35027700D01*
X4000000Y-31000000D02*
X5226700Y-31000000D01*
X26912500Y-35027700D02*
X26912500Y-39000000D01*
X27252100Y-16216500D02*
X27252100Y-28202100D01*
%TO.N,/GND*%
D18*
X45600000Y-6520000D02*
X66980000Y-6520000D01*
X17452500Y-24540000D02*
X26912500Y-34000000D01*
X49992500Y-48080000D02*
X49992500Y-58627500D01*
X49992500Y-58627500D02*
X42620000Y-66000000D01*
X40080000Y-66000000D02*
X42620000Y-66000000D01*
X66980000Y-6520000D02*
X71000000Y-10540000D01*
X36000000Y-34000000D02*
X34950000Y-34000000D01*
X71000000Y-48080000D02*
X49992500Y-48080000D01*
X44912500Y-43000000D02*
X36000000Y-34087500D01*
X36000000Y-34087500D02*
X36000000Y-34000000D01*
X49992500Y-48080000D02*
X44912500Y-43000000D01*
X40000000Y-30000000D02*
X36000000Y-34000000D01*
X4000000Y-24540000D02*
X17452500Y-24540000D01*
%TO.N,/PTT_D1_GPIO2*%
D17*
X29435000Y-6520000D02*
X20706700Y-6520000D01*
X4000000Y-22000000D02*
X5226700Y-22000000D01*
X20706700Y-6520000D02*
X5226700Y-22000000D01*
%TO.N,/HAPTIC_D2_GPIO3*%
X19940000Y-9060000D02*
X12118500Y-16881500D01*
X29435000Y-9060000D02*
X19940000Y-9060000D01*
%TO.N,/BAT_SENSE_D5_GPIO6*%
X27718400Y-18319600D02*
X27718400Y-24241100D01*
X29435000Y-16680000D02*
X29358000Y-16680000D01*
X36912500Y-43000000D02*
X43087500Y-43000000D01*
X34000000Y-30522700D02*
X34000000Y-40087500D01*
X29358000Y-16680000D02*
X27718400Y-18319600D01*
X27718400Y-24241100D02*
X34000000Y-30522700D01*
X34000000Y-40087500D02*
X36912500Y-43000000D01*
%TO.N,/DISP_DC_D6_GPIO43*%
X29435000Y-19220000D02*
X29674800Y-19459800D01*
X29674800Y-19459800D02*
X42443800Y-19459800D01*
%TO.N,/DISP_CS_D7_GPIO44*%
X72264200Y-32249100D02*
X72264200Y-22844200D01*
X59388500Y-33008500D02*
X71504800Y-33008500D01*
X71504800Y-33008500D02*
X72264200Y-32249100D01*
X45600000Y-19220000D02*
X59388500Y-33008500D01*
X72264200Y-22844200D02*
X71000000Y-21580000D01*
%TO.N,/DISP_SCK_D8_GPIO7*%
X45600000Y-16680000D02*
X55940000Y-16680000D01*
X55940000Y-16680000D02*
X71000000Y-31740000D01*
%TO.N,/SPK_IN_D9_GPIO8*%
X45493600Y-14140000D02*
X45600000Y-14140000D01*
X43895300Y-20099200D02*
X43895300Y-15738300D01*
X71000000Y-43000000D02*
X66796100Y-43000000D01*
X66796100Y-43000000D02*
X43895300Y-20099200D01*
X43895300Y-15738300D02*
X45493600Y-14140000D01*
%TO.N,/DISP_SDI_D10_GPIO9*%
X53400000Y-11600000D02*
X71000000Y-29200000D01*
X45600000Y-11600000D02*
X53400000Y-11600000D01*
%TO.N,/3V3*%
D18*
X55940000Y-9060000D02*
X45600000Y-9060000D01*
X45336000Y-9060000D02*
X43268600Y-11127400D01*
X72427800Y-46967800D02*
X72427800Y-48644100D01*
X43758300Y-67401700D02*
X29880700Y-67401700D01*
X56771500Y-64300400D02*
X46859600Y-64300400D01*
X72427800Y-48644100D02*
X56771500Y-64300400D01*
X71000000Y-24120000D02*
X55940000Y-9060000D01*
X29880700Y-67401700D02*
X16559000Y-54080000D01*
X45600000Y-9060000D02*
X45336000Y-9060000D01*
X46859600Y-64300400D02*
X45160000Y-66000000D01*
X45160000Y-66000000D02*
X43758300Y-67401700D01*
X43268600Y-11127400D02*
X43268600Y-21731400D01*
X71000000Y-45540000D02*
X72427800Y-46967800D01*
X43268600Y-21731400D02*
X35000000Y-30000000D01*
X16559000Y-54080000D02*
X4000000Y-54080000D01*
%TO.N,/5V*%
X12975100Y-2426600D02*
X44046600Y-2426600D01*
X44046600Y-2426600D02*
X45600000Y-3980000D01*
X35000000Y-66000000D02*
X37540000Y-66000000D01*
X5401700Y-10000000D02*
X12975100Y-2426600D01*
X45600000Y-3980000D02*
X65578300Y-3980000D01*
X4000000Y-10000000D02*
X5401700Y-10000000D01*
X71000000Y-8000000D02*
X69598300Y-8000000D01*
X65578300Y-3980000D02*
X69598300Y-8000000D01*
%TO.N,/BAT+*%
D17*
X3522400Y-52810000D02*
X25277500Y-52810000D01*
X2773300Y-53559100D02*
X3522400Y-52810000D01*
X12000000Y-66000000D02*
X12000000Y-64773300D01*
X12000000Y-64773300D02*
X2773300Y-55546600D01*
X2773300Y-55546600D02*
X2773300Y-53559100D01*
X25277500Y-52810000D02*
X35087500Y-43000000D01*
%TO.N,/BUTTON_DOWN*%
X25087500Y-39000000D02*
X9460000Y-39000000D01*
X9460000Y-39000000D02*
X4000000Y-33540000D01*
%TO.N,/BUTTON_SEL*%
X11920000Y-44000000D02*
X25087500Y-44000000D01*
X4000000Y-36080000D02*
X11920000Y-44000000D01*
%TD*%
%TA.AperFunction,Conductor*%
%TO.N,/GND*%
G36*
X41386630Y-66007052D02*
G01*
X41444863Y-66045662D01*
X41472473Y-66106120D01*
X41498317Y-66269293D01*
X41554251Y-66441444D01*
X41554252Y-66441447D01*
X41636434Y-66602734D01*
X41710236Y-66704315D01*
X41733716Y-66770121D01*
X41717890Y-66838175D01*
X41667784Y-66886870D01*
X41609918Y-66901200D01*
X41090082Y-66901200D01*
X41023043Y-66881515D01*
X40977288Y-66828711D01*
X40967344Y-66759553D01*
X40989764Y-66704315D01*
X41063565Y-66602734D01*
X41145747Y-66441447D01*
X41145748Y-66441444D01*
X41201682Y-66269293D01*
X41227527Y-66106120D01*
X41257456Y-66042985D01*
X41316768Y-66006054D01*
X41386630Y-66007052D01*
G37*
%TD.AperFunction*%
%TA.AperFunction,Conductor*%
G36*
X74442539Y-520185D02*
G01*
X74488294Y-572989D01*
X74499500Y-624500D01*
X74499500Y-69375500D01*
X74479815Y-69442539D01*
X74427011Y-69488294D01*
X74375500Y-69499500D01*
X624500Y-69499500D01*
X557461Y-69479815D01*
X511706Y-69427011D01*
X500500Y-69375500D01*
X500500Y-66893713D01*
X1649500Y-66893713D01*
X1649500Y-67106286D01*
X1682753Y-67316239D01*
X1748444Y-67518414D01*
X1844951Y-67707820D01*
X1969890Y-67879786D01*
X2120213Y-68030109D01*
X2292179Y-68155048D01*
X2292181Y-68155049D01*
X2292184Y-68155051D01*
X2481588Y-68251557D01*
X2683757Y-68317246D01*
X2893713Y-68350500D01*
X2893714Y-68350500D01*
X3106286Y-68350500D01*
X3106287Y-68350500D01*
X3316243Y-68317246D01*
X3518412Y-68251557D01*
X3707816Y-68155051D01*
X3729789Y-68139086D01*
X3879786Y-68030109D01*
X3879788Y-68030106D01*
X3879792Y-68030104D01*
X4030104Y-67879792D01*
X4030106Y-67879788D01*
X4030109Y-67879786D01*
X4155048Y-67707820D01*
X4155047Y-67707820D01*
X4155051Y-67707816D01*
X4251557Y-67518412D01*
X4317246Y-67316243D01*
X4350500Y-67106287D01*
X4350500Y-66893713D01*
X4317246Y-66683757D01*
X4251557Y-66481588D01*
X4155051Y-66292184D01*
X4155049Y-66292181D01*
X4155048Y-66292179D01*
X4030109Y-66120213D01*
X3879786Y-65969890D01*
X3707820Y-65844951D01*
X3518414Y-65748444D01*
X3518413Y-65748443D01*
X3518412Y-65748443D01*
X3316243Y-65682754D01*
X3316241Y-65682753D01*
X3316240Y-65682753D01*
X3154957Y-65657208D01*
X3106287Y-65649500D01*
X2893713Y-65649500D01*
X2845042Y-65657208D01*
X2683760Y-65682753D01*
X2481585Y-65748444D01*
X2292179Y-65844951D01*
X2120213Y-65969890D01*
X1969890Y-66120213D01*
X1844951Y-66292179D01*
X1748444Y-66481585D01*
X1748443Y-66481587D01*
X1748443Y-66481588D01*
X1717509Y-66576792D01*
X1682753Y-66683760D01*
X1649500Y-66893713D01*
X500500Y-66893713D01*
X500500Y-53516247D01*
X2447800Y-53516247D01*
X2447800Y-55589452D01*
X2469982Y-55672240D01*
X2491408Y-55709350D01*
X2512835Y-55746462D01*
X2512837Y-55746464D01*
X11454192Y-64687819D01*
X11487677Y-64749142D01*
X11482693Y-64818834D01*
X11440821Y-64874767D01*
X11375357Y-64899184D01*
X11366511Y-64899500D01*
X11080247Y-64899500D01*
X11021770Y-64911131D01*
X11021769Y-64911132D01*
X10955447Y-64955447D01*
X10911132Y-65021769D01*
X10911131Y-65021770D01*
X10899500Y-65080247D01*
X10899500Y-66919752D01*
X10911131Y-66978229D01*
X10911132Y-66978230D01*
X10955447Y-67044552D01*
X11021769Y-67088867D01*
X11021770Y-67088868D01*
X11080247Y-67100499D01*
X11080250Y-67100500D01*
X11080252Y-67100500D01*
X12919750Y-67100500D01*
X12919751Y-67100499D01*
X12934568Y-67097552D01*
X12978229Y-67088868D01*
X12978229Y-67088867D01*
X12978231Y-67088867D01*
X13044552Y-67044552D01*
X13088867Y-66978231D01*
X13088867Y-66978229D01*
X13088868Y-66978229D01*
X13100499Y-66919752D01*
X13100500Y-66919750D01*
X13100500Y-65909493D01*
X13390000Y-65909493D01*
X13390000Y-66090506D01*
X13418317Y-66269293D01*
X13474251Y-66441444D01*
X13474252Y-66441447D01*
X13556432Y-66602731D01*
X13627424Y-66700442D01*
X13627425Y-66700443D01*
X14096329Y-66231538D01*
X14139901Y-66307007D01*
X14232993Y-66400099D01*
X14308460Y-66443670D01*
X13839555Y-66912574D01*
X13937268Y-66983567D01*
X14098552Y-67065747D01*
X14098555Y-67065748D01*
X14270706Y-67121682D01*
X14449494Y-67150000D01*
X14630506Y-67150000D01*
X14809293Y-67121682D01*
X14981444Y-67065748D01*
X14981447Y-67065747D01*
X15142730Y-66983568D01*
X15240442Y-66912574D01*
X15240443Y-66912574D01*
X14771539Y-66443670D01*
X14847007Y-66400099D01*
X14940099Y-66307007D01*
X14983670Y-66231539D01*
X15452574Y-66700443D01*
X15452574Y-66700442D01*
X15523568Y-66602730D01*
X15605747Y-66441447D01*
X15605748Y-66441444D01*
X15661682Y-66269293D01*
X15690000Y-66090506D01*
X15690000Y-65913389D01*
X15979500Y-65913389D01*
X15979500Y-66086610D01*
X15999380Y-66212132D01*
X16006598Y-66257701D01*
X16060127Y-66422445D01*
X16138768Y-66576788D01*
X16240586Y-66716928D01*
X16363072Y-66839414D01*
X16503212Y-66941232D01*
X16657555Y-67019873D01*
X16822299Y-67073402D01*
X16993389Y-67100500D01*
X16993390Y-67100500D01*
X17166610Y-67100500D01*
X17166611Y-67100500D01*
X17337701Y-67073402D01*
X17502445Y-67019873D01*
X17656788Y-66941232D01*
X17796928Y-66839414D01*
X17919414Y-66716928D01*
X18021232Y-66576788D01*
X18099873Y-66422445D01*
X18153402Y-66257701D01*
X18180500Y-66086611D01*
X18180500Y-65913389D01*
X18153402Y-65742299D01*
X18099873Y-65577555D01*
X18021232Y-65423212D01*
X17919414Y-65283072D01*
X17796928Y-65160586D01*
X17656788Y-65058768D01*
X17502445Y-64980127D01*
X17337701Y-64926598D01*
X17337699Y-64926597D01*
X17337698Y-64926597D01*
X17206271Y-64905781D01*
X17166611Y-64899500D01*
X16993389Y-64899500D01*
X16953728Y-64905781D01*
X16822302Y-64926597D01*
X16657552Y-64980128D01*
X16503211Y-65058768D01*
X16463769Y-65087425D01*
X16363072Y-65160586D01*
X16363070Y-65160588D01*
X16363069Y-65160588D01*
X16240588Y-65283069D01*
X16240588Y-65283070D01*
X16240586Y-65283072D01*
X16228610Y-65299556D01*
X16138768Y-65423211D01*
X16060128Y-65577552D01*
X16006597Y-65742302D01*
X15979500Y-65913389D01*
X15690000Y-65913389D01*
X15690000Y-65909493D01*
X15661682Y-65730706D01*
X15605748Y-65558555D01*
X15605747Y-65558552D01*
X15523567Y-65397268D01*
X15452574Y-65299556D01*
X15452574Y-65299555D01*
X14983670Y-65768460D01*
X14940099Y-65692993D01*
X14847007Y-65599901D01*
X14771539Y-65556329D01*
X15240443Y-65087425D01*
X15240442Y-65087424D01*
X15142731Y-65016432D01*
X14981447Y-64934252D01*
X14981444Y-64934251D01*
X14809293Y-64878317D01*
X14630506Y-64850000D01*
X14449494Y-64850000D01*
X14270706Y-64878317D01*
X14098555Y-64934251D01*
X14098552Y-64934252D01*
X13937265Y-65016434D01*
X13839556Y-65087423D01*
X13839556Y-65087425D01*
X14308461Y-65556329D01*
X14232993Y-65599901D01*
X14139901Y-65692993D01*
X14096329Y-65768460D01*
X13627425Y-65299556D01*
X13627423Y-65299556D01*
X13556434Y-65397265D01*
X13474252Y-65558552D01*
X13474251Y-65558555D01*
X13418317Y-65730706D01*
X13390000Y-65909493D01*
X13100500Y-65909493D01*
X13100500Y-65080249D01*
X13100499Y-65080247D01*
X13088868Y-65021770D01*
X13088867Y-65021769D01*
X13044552Y-64955447D01*
X12978230Y-64911132D01*
X12978229Y-64911131D01*
X12919752Y-64899500D01*
X12919748Y-64899500D01*
X12449500Y-64899500D01*
X12382461Y-64879815D01*
X12336706Y-64827011D01*
X12325500Y-64775500D01*
X12325500Y-64730449D01*
X12325500Y-64730447D01*
X12303318Y-64647662D01*
X12303318Y-64647661D01*
X12260465Y-64573438D01*
X3135119Y-55448092D01*
X3101634Y-55386769D01*
X3098800Y-55360411D01*
X3098800Y-55028896D01*
X3118485Y-54961857D01*
X3171289Y-54916102D01*
X3240447Y-54906158D01*
X3295684Y-54928577D01*
X3423212Y-55021232D01*
X3577555Y-55099873D01*
X3742299Y-55153402D01*
X3913389Y-55180500D01*
X3913390Y-55180500D01*
X4086610Y-55180500D01*
X4086611Y-55180500D01*
X4257701Y-55153402D01*
X4422445Y-55099873D01*
X4576788Y-55021232D01*
X4716928Y-54919414D01*
X4839414Y-54796928D01*
X4941232Y-54656788D01*
X4945607Y-54648202D01*
X4993582Y-54597408D01*
X5056090Y-54580500D01*
X16300324Y-54580500D01*
X16367363Y-54600185D01*
X16388005Y-54616819D01*
X29480200Y-67709014D01*
X29573386Y-67802200D01*
X29687514Y-67868092D01*
X29814808Y-67902200D01*
X29814810Y-67902200D01*
X43824190Y-67902200D01*
X43824192Y-67902200D01*
X43951486Y-67868092D01*
X44065614Y-67802200D01*
X44767138Y-67100674D01*
X44828461Y-67067190D01*
X44893136Y-67070424D01*
X44902299Y-67073402D01*
X45073389Y-67100500D01*
X45073390Y-67100500D01*
X45246610Y-67100500D01*
X45246611Y-67100500D01*
X45417701Y-67073402D01*
X45582445Y-67019873D01*
X45736788Y-66941232D01*
X45876928Y-66839414D01*
X45999414Y-66716928D01*
X46101232Y-66576788D01*
X46179873Y-66422445D01*
X46233402Y-66257701D01*
X46260500Y-66086611D01*
X46260500Y-65913389D01*
X46233402Y-65742299D01*
X46230424Y-65733137D01*
X46228430Y-65663296D01*
X46260675Y-65607138D01*
X46425455Y-65442358D01*
X46486778Y-65408873D01*
X46556470Y-65413857D01*
X46612403Y-65455729D01*
X46636820Y-65521193D01*
X46631067Y-65568357D01*
X46578317Y-65730706D01*
X46550000Y-65909493D01*
X46550000Y-66090506D01*
X46578317Y-66269293D01*
X46634251Y-66441444D01*
X46634252Y-66441447D01*
X46716432Y-66602731D01*
X46787424Y-66700442D01*
X46787424Y-66700443D01*
X47256329Y-66231538D01*
X47299901Y-66307007D01*
X47392993Y-66400099D01*
X47468460Y-66443670D01*
X46999555Y-66912574D01*
X47097268Y-66983567D01*
X47258552Y-67065747D01*
X47258555Y-67065748D01*
X47430706Y-67121682D01*
X47609494Y-67150000D01*
X47790506Y-67150000D01*
X47969293Y-67121682D01*
X48141444Y-67065748D01*
X48141447Y-67065747D01*
X48302730Y-66983568D01*
X48400443Y-66912574D01*
X48381582Y-66893713D01*
X70649500Y-66893713D01*
X70649500Y-67106286D01*
X70682753Y-67316239D01*
X70748444Y-67518414D01*
X70844951Y-67707820D01*
X70969890Y-67879786D01*
X71120213Y-68030109D01*
X71292179Y-68155048D01*
X71292181Y-68155049D01*
X71292184Y-68155051D01*
X71481588Y-68251557D01*
X71683757Y-68317246D01*
X71893713Y-68350500D01*
X71893714Y-68350500D01*
X72106286Y-68350500D01*
X72106287Y-68350500D01*
X72316243Y-68317246D01*
X72518412Y-68251557D01*
X72707816Y-68155051D01*
X72729789Y-68139086D01*
X72879786Y-68030109D01*
X72879788Y-68030106D01*
X72879792Y-68030104D01*
X73030104Y-67879792D01*
X73030106Y-67879788D01*
X73030109Y-67879786D01*
X73155048Y-67707820D01*
X73155047Y-67707820D01*
X73155051Y-67707816D01*
X73251557Y-67518412D01*
X73317246Y-67316243D01*
X73350500Y-67106287D01*
X73350500Y-66893713D01*
X73317246Y-66683757D01*
X73251557Y-66481588D01*
X73155051Y-66292184D01*
X73155049Y-66292181D01*
X73155048Y-66292179D01*
X73030109Y-66120213D01*
X72879786Y-65969890D01*
X72707820Y-65844951D01*
X72518414Y-65748444D01*
X72518413Y-65748443D01*
X72518412Y-65748443D01*
X72316243Y-65682754D01*
X72316241Y-65682753D01*
X72316240Y-65682753D01*
X72154957Y-65657208D01*
X72106287Y-65649500D01*
X71893713Y-65649500D01*
X71845042Y-65657208D01*
X71683760Y-65682753D01*
X71481585Y-65748444D01*
X71292179Y-65844951D01*
X71120213Y-65969890D01*
X70969890Y-66120213D01*
X70844951Y-66292179D01*
X70748444Y-66481585D01*
X70748443Y-66481587D01*
X70748443Y-66481588D01*
X70717509Y-66576792D01*
X70682753Y-66683760D01*
X70649500Y-66893713D01*
X48381582Y-66893713D01*
X47931539Y-66443670D01*
X48007007Y-66400099D01*
X48100099Y-66307007D01*
X48143670Y-66231539D01*
X48612574Y-66700443D01*
X48612574Y-66700442D01*
X48683568Y-66602730D01*
X48765747Y-66441447D01*
X48765748Y-66441444D01*
X48821682Y-66269293D01*
X48850000Y-66090506D01*
X48850000Y-65909493D01*
X48821682Y-65730706D01*
X48765748Y-65558555D01*
X48765747Y-65558552D01*
X48683567Y-65397268D01*
X48612574Y-65299556D01*
X48612574Y-65299555D01*
X48143670Y-65768460D01*
X48100099Y-65692993D01*
X48007007Y-65599901D01*
X47931538Y-65556329D01*
X48400443Y-65087424D01*
X48314824Y-65025218D01*
X48272159Y-64969888D01*
X48266180Y-64900274D01*
X48298786Y-64838479D01*
X48359625Y-64804122D01*
X48387710Y-64800900D01*
X56837390Y-64800900D01*
X56837392Y-64800900D01*
X56964686Y-64766792D01*
X57078814Y-64700900D01*
X64326325Y-57453389D01*
X69899500Y-57453389D01*
X69899500Y-57626611D01*
X69926598Y-57797701D01*
X69980127Y-57962445D01*
X70058768Y-58116788D01*
X70160586Y-58256928D01*
X70283072Y-58379414D01*
X70423212Y-58481232D01*
X70577555Y-58559873D01*
X70742299Y-58613402D01*
X70913389Y-58640500D01*
X70913390Y-58640500D01*
X71086610Y-58640500D01*
X71086611Y-58640500D01*
X71257701Y-58613402D01*
X71422445Y-58559873D01*
X71576788Y-58481232D01*
X71716928Y-58379414D01*
X71839414Y-58256928D01*
X71941232Y-58116788D01*
X72019873Y-57962445D01*
X72073402Y-57797701D01*
X72100500Y-57626611D01*
X72100500Y-57453389D01*
X72073402Y-57282299D01*
X72019873Y-57117555D01*
X71941232Y-56963212D01*
X71839414Y-56823072D01*
X71716928Y-56700586D01*
X71576788Y-56598768D01*
X71422445Y-56520127D01*
X71257701Y-56466598D01*
X71257699Y-56466597D01*
X71257698Y-56466597D01*
X71126271Y-56445781D01*
X71086611Y-56439500D01*
X70913389Y-56439500D01*
X70873728Y-56445781D01*
X70742302Y-56466597D01*
X70577552Y-56520128D01*
X70423211Y-56598768D01*
X70343256Y-56656859D01*
X70283072Y-56700586D01*
X70283070Y-56700588D01*
X70283069Y-56700588D01*
X70160588Y-56823069D01*
X70160588Y-56823070D01*
X70160586Y-56823072D01*
X70116859Y-56883256D01*
X70058768Y-56963211D01*
X69980128Y-57117552D01*
X69926597Y-57282302D01*
X69914159Y-57360836D01*
X69899500Y-57453389D01*
X64326325Y-57453389D01*
X67699467Y-54080247D01*
X69899500Y-54080247D01*
X69899500Y-55919752D01*
X69911131Y-55978229D01*
X69911132Y-55978230D01*
X69955447Y-56044552D01*
X70021769Y-56088867D01*
X70021770Y-56088868D01*
X70080247Y-56100499D01*
X70080250Y-56100500D01*
X70080252Y-56100500D01*
X71919750Y-56100500D01*
X71919751Y-56100499D01*
X71934568Y-56097552D01*
X71978229Y-56088868D01*
X71978229Y-56088867D01*
X71978231Y-56088867D01*
X72044552Y-56044552D01*
X72088867Y-55978231D01*
X72088867Y-55978229D01*
X72088868Y-55978229D01*
X72100499Y-55919752D01*
X72100500Y-55919750D01*
X72100500Y-54080249D01*
X72100499Y-54080247D01*
X72088868Y-54021770D01*
X72088867Y-54021769D01*
X72044552Y-53955447D01*
X71978230Y-53911132D01*
X71978229Y-53911131D01*
X71919752Y-53899500D01*
X71919748Y-53899500D01*
X70080252Y-53899500D01*
X70080247Y-53899500D01*
X70021770Y-53911131D01*
X70021769Y-53911132D01*
X69955447Y-53955447D01*
X69911132Y-54021769D01*
X69911131Y-54021770D01*
X69899500Y-54080247D01*
X67699467Y-54080247D01*
X72828300Y-48951414D01*
X72894192Y-48837286D01*
X72928300Y-48709992D01*
X72928300Y-48578207D01*
X72928300Y-46901908D01*
X72894192Y-46774614D01*
X72828300Y-46660486D01*
X72735114Y-46567300D01*
X72100675Y-45932861D01*
X72067190Y-45871538D01*
X72070426Y-45806859D01*
X72073402Y-45797701D01*
X72100500Y-45626611D01*
X72100500Y-45453389D01*
X72073402Y-45282299D01*
X72019873Y-45117555D01*
X71941232Y-44963212D01*
X71839414Y-44823072D01*
X71716928Y-44700586D01*
X71576788Y-44598768D01*
X71422445Y-44520127D01*
X71257701Y-44466598D01*
X71257699Y-44466597D01*
X71257698Y-44466597D01*
X71126271Y-44445781D01*
X71086611Y-44439500D01*
X70913389Y-44439500D01*
X70873728Y-44445781D01*
X70742302Y-44466597D01*
X70577552Y-44520128D01*
X70423211Y-44598768D01*
X70343256Y-44656859D01*
X70283072Y-44700586D01*
X70283070Y-44700588D01*
X70283069Y-44700588D01*
X70160588Y-44823069D01*
X70160588Y-44823070D01*
X70160586Y-44823072D01*
X70116859Y-44883256D01*
X70058768Y-44963211D01*
X69980128Y-45117552D01*
X69926597Y-45282302D01*
X69899500Y-45453389D01*
X69899500Y-45626611D01*
X69926598Y-45797701D01*
X69980127Y-45962445D01*
X70058768Y-46116788D01*
X70160586Y-46256928D01*
X70283072Y-46379414D01*
X70423212Y-46481232D01*
X70577555Y-46559873D01*
X70742299Y-46613402D01*
X70913389Y-46640500D01*
X70913390Y-46640500D01*
X71086610Y-46640500D01*
X71086611Y-46640500D01*
X71257701Y-46613402D01*
X71266859Y-46610425D01*
X71336700Y-46608429D01*
X71392861Y-46640675D01*
X71557640Y-46805454D01*
X71591125Y-46866777D01*
X71586141Y-46936469D01*
X71544269Y-46992402D01*
X71478805Y-47016819D01*
X71431642Y-47011066D01*
X71269294Y-46958317D01*
X71269295Y-46958317D01*
X71090506Y-46930000D01*
X70909494Y-46930000D01*
X70730706Y-46958317D01*
X70558555Y-47014251D01*
X70558552Y-47014252D01*
X70397265Y-47096434D01*
X70299556Y-47167423D01*
X70299556Y-47167425D01*
X70768460Y-47636329D01*
X70692993Y-47679901D01*
X70599901Y-47772993D01*
X70556329Y-47848460D01*
X70087425Y-47379556D01*
X70087423Y-47379556D01*
X70016434Y-47477265D01*
X69934252Y-47638552D01*
X69934251Y-47638555D01*
X69878317Y-47810706D01*
X69850000Y-47989493D01*
X69850000Y-48170506D01*
X69878317Y-48349293D01*
X69934251Y-48521444D01*
X69934252Y-48521447D01*
X70016432Y-48682731D01*
X70087424Y-48780442D01*
X70087424Y-48780443D01*
X70556328Y-48311538D01*
X70599901Y-48387007D01*
X70692993Y-48480099D01*
X70768459Y-48523669D01*
X70299555Y-48992574D01*
X70397268Y-49063567D01*
X70558552Y-49145747D01*
X70558555Y-49145748D01*
X70730707Y-49201683D01*
X70863009Y-49222637D01*
X70926144Y-49252566D01*
X70963076Y-49311877D01*
X70962078Y-49381740D01*
X70931293Y-49432791D01*
X56600505Y-63763581D01*
X56539182Y-63797066D01*
X56512824Y-63799900D01*
X46793707Y-63799900D01*
X46666412Y-63834008D01*
X46552286Y-63899900D01*
X46552283Y-63899902D01*
X45552860Y-64899324D01*
X45491537Y-64932809D01*
X45426866Y-64929576D01*
X45417701Y-64926598D01*
X45417699Y-64926597D01*
X45417697Y-64926597D01*
X45298239Y-64907677D01*
X45246611Y-64899500D01*
X45073389Y-64899500D01*
X45033728Y-64905781D01*
X44902302Y-64926597D01*
X44737552Y-64980128D01*
X44583211Y-65058768D01*
X44543769Y-65087425D01*
X44443072Y-65160586D01*
X44443070Y-65160588D01*
X44443069Y-65160588D01*
X44320588Y-65283069D01*
X44320588Y-65283070D01*
X44320586Y-65283072D01*
X44308610Y-65299556D01*
X44218768Y-65423211D01*
X44140128Y-65577552D01*
X44086597Y-65742302D01*
X44059500Y-65913389D01*
X44059500Y-66086610D01*
X44086597Y-66257697D01*
X44089576Y-66266866D01*
X44091568Y-66336707D01*
X44059324Y-66392860D01*
X43894545Y-66557639D01*
X43833222Y-66591124D01*
X43763530Y-66586140D01*
X43707597Y-66544268D01*
X43683180Y-66478804D01*
X43688933Y-66431640D01*
X43741682Y-66269293D01*
X43770000Y-66090506D01*
X43770000Y-65909493D01*
X43741682Y-65730706D01*
X43685748Y-65558555D01*
X43685747Y-65558552D01*
X43603567Y-65397268D01*
X43532574Y-65299556D01*
X43532574Y-65299555D01*
X43063669Y-65768459D01*
X43020099Y-65692993D01*
X42927007Y-65599901D01*
X42851538Y-65556328D01*
X43320443Y-65087424D01*
X43222731Y-65016432D01*
X43061447Y-64934252D01*
X43061444Y-64934251D01*
X42889293Y-64878317D01*
X42710506Y-64850000D01*
X42529494Y-64850000D01*
X42350706Y-64878317D01*
X42178555Y-64934251D01*
X42178552Y-64934252D01*
X42017265Y-65016434D01*
X41919556Y-65087423D01*
X41919556Y-65087425D01*
X42388460Y-65556329D01*
X42312993Y-65599901D01*
X42219901Y-65692993D01*
X42176329Y-65768460D01*
X41707425Y-65299556D01*
X41707423Y-65299556D01*
X41636434Y-65397265D01*
X41554252Y-65558552D01*
X41554251Y-65558555D01*
X41498317Y-65730706D01*
X41472473Y-65893879D01*
X41442544Y-65957014D01*
X41383232Y-65993945D01*
X41313370Y-65992947D01*
X41255137Y-65954337D01*
X41227527Y-65893879D01*
X41201682Y-65730706D01*
X41145748Y-65558555D01*
X41145747Y-65558552D01*
X41063567Y-65397268D01*
X40992574Y-65299556D01*
X40992574Y-65299555D01*
X40523669Y-65768459D01*
X40480099Y-65692993D01*
X40387007Y-65599901D01*
X40311538Y-65556328D01*
X40780443Y-65087424D01*
X40682731Y-65016432D01*
X40521447Y-64934252D01*
X40521444Y-64934251D01*
X40349293Y-64878317D01*
X40170506Y-64850000D01*
X39989494Y-64850000D01*
X39810706Y-64878317D01*
X39638555Y-64934251D01*
X39638552Y-64934252D01*
X39477265Y-65016434D01*
X39379556Y-65087423D01*
X39379556Y-65087425D01*
X39848460Y-65556329D01*
X39772993Y-65599901D01*
X39679901Y-65692993D01*
X39636329Y-65768460D01*
X39167425Y-65299556D01*
X39167423Y-65299556D01*
X39096434Y-65397265D01*
X39014252Y-65558552D01*
X39014251Y-65558555D01*
X38958317Y-65730706D01*
X38930000Y-65909493D01*
X38930000Y-66090506D01*
X38958317Y-66269293D01*
X39014251Y-66441444D01*
X39014252Y-66441447D01*
X39096434Y-66602734D01*
X39170236Y-66704315D01*
X39193716Y-66770121D01*
X39177890Y-66838175D01*
X39127784Y-66886870D01*
X39069918Y-66901200D01*
X38488896Y-66901200D01*
X38421857Y-66881515D01*
X38376102Y-66828711D01*
X38366158Y-66759553D01*
X38388577Y-66704315D01*
X38481232Y-66576788D01*
X38559873Y-66422445D01*
X38613402Y-66257701D01*
X38640500Y-66086611D01*
X38640500Y-65913389D01*
X38613402Y-65742299D01*
X38559873Y-65577555D01*
X38481232Y-65423212D01*
X38379414Y-65283072D01*
X38256928Y-65160586D01*
X38116788Y-65058768D01*
X37962445Y-64980127D01*
X37797701Y-64926598D01*
X37797699Y-64926597D01*
X37797698Y-64926597D01*
X37666271Y-64905781D01*
X37626611Y-64899500D01*
X37453389Y-64899500D01*
X37413728Y-64905781D01*
X37282302Y-64926597D01*
X37117552Y-64980128D01*
X36963211Y-65058768D01*
X36923769Y-65087425D01*
X36823072Y-65160586D01*
X36823070Y-65160588D01*
X36823069Y-65160588D01*
X36700588Y-65283069D01*
X36700588Y-65283070D01*
X36700586Y-65283072D01*
X36688610Y-65299556D01*
X36598770Y-65423207D01*
X36598765Y-65423216D01*
X36594393Y-65431798D01*
X36546418Y-65482592D01*
X36483910Y-65499500D01*
X36224500Y-65499500D01*
X36157461Y-65479815D01*
X36111706Y-65427011D01*
X36100500Y-65375500D01*
X36100500Y-65080249D01*
X36100499Y-65080247D01*
X36088868Y-65021770D01*
X36088867Y-65021769D01*
X36044552Y-64955447D01*
X35978230Y-64911132D01*
X35978229Y-64911131D01*
X35919752Y-64899500D01*
X35919748Y-64899500D01*
X34080252Y-64899500D01*
X34080247Y-64899500D01*
X34021770Y-64911131D01*
X34021769Y-64911132D01*
X33955447Y-64955447D01*
X33911132Y-65021769D01*
X33911131Y-65021770D01*
X33899500Y-65080247D01*
X33899500Y-66777200D01*
X33879815Y-66844239D01*
X33827011Y-66889994D01*
X33775500Y-66901200D01*
X30139376Y-66901200D01*
X30072337Y-66881515D01*
X30051695Y-66864881D01*
X16866316Y-53679502D01*
X16866314Y-53679500D01*
X16809250Y-53646554D01*
X16752187Y-53613608D01*
X16688539Y-53596554D01*
X16624892Y-53579500D01*
X16624891Y-53579500D01*
X5056090Y-53579500D01*
X4989051Y-53559815D01*
X4945607Y-53511798D01*
X4941234Y-53503216D01*
X4941229Y-53503207D01*
X4890555Y-53433462D01*
X4839414Y-53363072D01*
X4823523Y-53347181D01*
X4790038Y-53285858D01*
X4795022Y-53216166D01*
X4836894Y-53160233D01*
X4902358Y-53135816D01*
X4911204Y-53135500D01*
X25320351Y-53135500D01*
X25320353Y-53135500D01*
X25403139Y-53113318D01*
X25477362Y-53070465D01*
X34618448Y-43929377D01*
X34679769Y-43895894D01*
X34732259Y-43899112D01*
X34732932Y-43896036D01*
X34740306Y-43897647D01*
X34770730Y-43900500D01*
X34770734Y-43900500D01*
X35404270Y-43900500D01*
X35434699Y-43897646D01*
X35434701Y-43897646D01*
X35501461Y-43874285D01*
X35562882Y-43852793D01*
X35672150Y-43772150D01*
X35752793Y-43662882D01*
X35789710Y-43557379D01*
X35797646Y-43534701D01*
X35797646Y-43534699D01*
X35800500Y-43504269D01*
X35800500Y-42647689D01*
X35820185Y-42580650D01*
X35872989Y-42534895D01*
X35942147Y-42524951D01*
X36005703Y-42553976D01*
X36012181Y-42560008D01*
X36163181Y-42711008D01*
X36196666Y-42772331D01*
X36199500Y-42798689D01*
X36199500Y-43504269D01*
X36202353Y-43534699D01*
X36202353Y-43534701D01*
X36244384Y-43654815D01*
X36247207Y-43662882D01*
X36327850Y-43772150D01*
X36437118Y-43852793D01*
X36479845Y-43867744D01*
X36565299Y-43897646D01*
X36595730Y-43900500D01*
X36595734Y-43900500D01*
X37229270Y-43900500D01*
X37259699Y-43897646D01*
X37259701Y-43897646D01*
X37326461Y-43874285D01*
X37387882Y-43852793D01*
X37497150Y-43772150D01*
X37577793Y-43662882D01*
X37614710Y-43557379D01*
X37622646Y-43534701D01*
X37622646Y-43534699D01*
X37625500Y-43504269D01*
X37625500Y-43449500D01*
X37645185Y-43382461D01*
X37697989Y-43336706D01*
X37749500Y-43325500D01*
X42250500Y-43325500D01*
X42317539Y-43345185D01*
X42363294Y-43397989D01*
X42374500Y-43449500D01*
X42374500Y-43504269D01*
X42377353Y-43534699D01*
X42377353Y-43534701D01*
X42419384Y-43654815D01*
X42422207Y-43662882D01*
X42502850Y-43772150D01*
X42612118Y-43852793D01*
X42654845Y-43867744D01*
X42740299Y-43897646D01*
X42770730Y-43900500D01*
X42770734Y-43900500D01*
X43404270Y-43900500D01*
X43434699Y-43897646D01*
X43434701Y-43897646D01*
X43501461Y-43874285D01*
X43562882Y-43852793D01*
X43672150Y-43772150D01*
X43752793Y-43662882D01*
X43789710Y-43557379D01*
X43797646Y-43534701D01*
X43797646Y-43534699D01*
X43800500Y-43504269D01*
X43800500Y-43497844D01*
X44150000Y-43497844D01*
X44156401Y-43557372D01*
X44156403Y-43557379D01*
X44206645Y-43692086D01*
X44206649Y-43692093D01*
X44292809Y-43807187D01*
X44292812Y-43807190D01*
X44407906Y-43893350D01*
X44407913Y-43893354D01*
X44542620Y-43943596D01*
X44542627Y-43943598D01*
X44602155Y-43949999D01*
X44602172Y-43950000D01*
X44762500Y-43950000D01*
X45062500Y-43950000D01*
X45222828Y-43950000D01*
X45222844Y-43949999D01*
X45282372Y-43943598D01*
X45282379Y-43943596D01*
X45417086Y-43893354D01*
X45417093Y-43893350D01*
X45532187Y-43807190D01*
X45532190Y-43807187D01*
X45618350Y-43692093D01*
X45618354Y-43692086D01*
X45668596Y-43557379D01*
X45668598Y-43557372D01*
X45674999Y-43497844D01*
X45675000Y-43497827D01*
X45675000Y-43150000D01*
X45062500Y-43150000D01*
X45062500Y-43950000D01*
X44762500Y-43950000D01*
X44762500Y-43150000D01*
X44150000Y-43150000D01*
X44150000Y-43497844D01*
X43800500Y-43497844D01*
X43800500Y-42502155D01*
X44150000Y-42502155D01*
X44150000Y-42850000D01*
X44762500Y-42850000D01*
X45062500Y-42850000D01*
X45675000Y-42850000D01*
X45675000Y-42502172D01*
X45674999Y-42502155D01*
X45668598Y-42442627D01*
X45668596Y-42442620D01*
X45618354Y-42307913D01*
X45618350Y-42307906D01*
X45532190Y-42192812D01*
X45532187Y-42192809D01*
X45417093Y-42106649D01*
X45417086Y-42106645D01*
X45282379Y-42056403D01*
X45282372Y-42056401D01*
X45222844Y-42050000D01*
X45062500Y-42050000D01*
X45062500Y-42850000D01*
X44762500Y-42850000D01*
X44762500Y-42050000D01*
X44602155Y-42050000D01*
X44542627Y-42056401D01*
X44542620Y-42056403D01*
X44407913Y-42106645D01*
X44407906Y-42106649D01*
X44292812Y-42192809D01*
X44292809Y-42192812D01*
X44206649Y-42307906D01*
X44206645Y-42307913D01*
X44156403Y-42442620D01*
X44156401Y-42442627D01*
X44150000Y-42502155D01*
X43800500Y-42502155D01*
X43800500Y-42495730D01*
X43797646Y-42465300D01*
X43797646Y-42465298D01*
X43752793Y-42337119D01*
X43752792Y-42337117D01*
X43732779Y-42310000D01*
X43672150Y-42227850D01*
X43562882Y-42147207D01*
X43562880Y-42147206D01*
X43434700Y-42102353D01*
X43404270Y-42099500D01*
X43404266Y-42099500D01*
X42770734Y-42099500D01*
X42770730Y-42099500D01*
X42740300Y-42102353D01*
X42740298Y-42102353D01*
X42612119Y-42147206D01*
X42612117Y-42147207D01*
X42502850Y-42227850D01*
X42422207Y-42337117D01*
X42422206Y-42337119D01*
X42377353Y-42465298D01*
X42377353Y-42465300D01*
X42374500Y-42495730D01*
X42374500Y-42550500D01*
X42354815Y-42617539D01*
X42302011Y-42663294D01*
X42250500Y-42674500D01*
X37749500Y-42674500D01*
X37682461Y-42654815D01*
X37636706Y-42602011D01*
X37625500Y-42550500D01*
X37625500Y-42495730D01*
X37622646Y-42465300D01*
X37622646Y-42465298D01*
X37577793Y-42337119D01*
X37577792Y-42337117D01*
X37557779Y-42310000D01*
X37497150Y-42227850D01*
X37387882Y-42147207D01*
X37387880Y-42147206D01*
X37259700Y-42102353D01*
X37229270Y-42099500D01*
X37229266Y-42099500D01*
X36595734Y-42099500D01*
X36595730Y-42099500D01*
X36565305Y-42102353D01*
X36557930Y-42103964D01*
X36557229Y-42100755D01*
X36502203Y-42103518D01*
X36443447Y-42070620D01*
X34361819Y-39988992D01*
X34328334Y-39927669D01*
X34325500Y-39901311D01*
X34325500Y-35047560D01*
X34345185Y-34980521D01*
X34397989Y-34934766D01*
X34467147Y-34924822D01*
X34492834Y-34931378D01*
X34592623Y-34968597D01*
X34592627Y-34968598D01*
X34652155Y-34974999D01*
X34652172Y-34975000D01*
X34800000Y-34975000D01*
X35100000Y-34975000D01*
X35247828Y-34975000D01*
X35247844Y-34974999D01*
X35307372Y-34968598D01*
X35307379Y-34968596D01*
X35442086Y-34918354D01*
X35442093Y-34918350D01*
X35557187Y-34832190D01*
X35557190Y-34832187D01*
X35643350Y-34717093D01*
X35643354Y-34717086D01*
X35693596Y-34582379D01*
X35693598Y-34582372D01*
X35699999Y-34522844D01*
X35700000Y-34522827D01*
X35700000Y-34150000D01*
X35100000Y-34150000D01*
X35100000Y-34975000D01*
X34800000Y-34975000D01*
X34800000Y-33850000D01*
X35100000Y-33850000D01*
X35700000Y-33850000D01*
X35700000Y-33477172D01*
X35699999Y-33477155D01*
X35693598Y-33417627D01*
X35693596Y-33417620D01*
X35643354Y-33282913D01*
X35643350Y-33282906D01*
X35557190Y-33167812D01*
X35557187Y-33167809D01*
X35442093Y-33081649D01*
X35442086Y-33081645D01*
X35307379Y-33031403D01*
X35307372Y-33031401D01*
X35247844Y-33025000D01*
X35100000Y-33025000D01*
X35100000Y-33850000D01*
X34800000Y-33850000D01*
X34800000Y-33025000D01*
X34652155Y-33025000D01*
X34592627Y-33031401D01*
X34592619Y-33031403D01*
X34492833Y-33068621D01*
X34423141Y-33073605D01*
X34361818Y-33040120D01*
X34328334Y-32978796D01*
X34325500Y-32952439D01*
X34325500Y-30924458D01*
X34345185Y-30857419D01*
X34397989Y-30811664D01*
X34467147Y-30801720D01*
X34518392Y-30821357D01*
X34549760Y-30842317D01*
X34549768Y-30842321D01*
X34549769Y-30842322D01*
X34722749Y-30913973D01*
X34882424Y-30945734D01*
X34906379Y-30950499D01*
X34906383Y-30950500D01*
X34906384Y-30950500D01*
X35093617Y-30950500D01*
X35093618Y-30950499D01*
X35277251Y-30913973D01*
X35450231Y-30842322D01*
X35504700Y-30805927D01*
X39406203Y-30805927D01*
X39406203Y-30805928D01*
X39526316Y-30886185D01*
X39526328Y-30886192D01*
X39708306Y-30961569D01*
X39708318Y-30961572D01*
X39901504Y-30999999D01*
X39901508Y-31000000D01*
X40098492Y-31000000D01*
X40098495Y-30999999D01*
X40291681Y-30961572D01*
X40291693Y-30961569D01*
X40473673Y-30886191D01*
X40473675Y-30886190D01*
X40593796Y-30805928D01*
X40000001Y-30212132D01*
X40000000Y-30212132D01*
X39406203Y-30805927D01*
X35504700Y-30805927D01*
X35605908Y-30738302D01*
X35635321Y-30708889D01*
X35672175Y-30672036D01*
X35738299Y-30605911D01*
X35738302Y-30605908D01*
X35842322Y-30450231D01*
X35913973Y-30277251D01*
X35950500Y-30093616D01*
X35950500Y-29906384D01*
X35949529Y-29901504D01*
X39000000Y-29901504D01*
X39000000Y-30098495D01*
X39038427Y-30291681D01*
X39038430Y-30291693D01*
X39113809Y-30473676D01*
X39113811Y-30473679D01*
X39194069Y-30593795D01*
X39194071Y-30593795D01*
X39787868Y-30000000D01*
X39787868Y-29999999D01*
X40212132Y-29999999D01*
X40212132Y-30000000D01*
X40805928Y-30593796D01*
X40886190Y-30473675D01*
X40886191Y-30473673D01*
X40961569Y-30291693D01*
X40961572Y-30291681D01*
X40999999Y-30098495D01*
X41000000Y-30098492D01*
X41000000Y-29901508D01*
X40999999Y-29901504D01*
X40961572Y-29708318D01*
X40961569Y-29708306D01*
X40886192Y-29526328D01*
X40886185Y-29526316D01*
X40805927Y-29406203D01*
X40212132Y-29999999D01*
X39787868Y-29999999D01*
X39194071Y-29406202D01*
X39194071Y-29406203D01*
X39113813Y-29526318D01*
X39113809Y-29526325D01*
X39038429Y-29708310D01*
X39038427Y-29708318D01*
X39000000Y-29901504D01*
X35949529Y-29901504D01*
X35938572Y-29846421D01*
X35938469Y-29845874D01*
X35941868Y-29811621D01*
X35944925Y-29777459D01*
X35945317Y-29776859D01*
X35945369Y-29776345D01*
X35947022Y-29774258D01*
X35972632Y-29735180D01*
X36513741Y-29194071D01*
X39406202Y-29194071D01*
X40000000Y-29787868D01*
X40000001Y-29787868D01*
X40593795Y-29194071D01*
X40593795Y-29194069D01*
X40473679Y-29113811D01*
X40473676Y-29113809D01*
X40291693Y-29038430D01*
X40291681Y-29038427D01*
X40098495Y-29000000D01*
X39901504Y-29000000D01*
X39708318Y-29038427D01*
X39708310Y-29038429D01*
X39526325Y-29113809D01*
X39526318Y-29113813D01*
X39406203Y-29194071D01*
X39406202Y-29194071D01*
X36513741Y-29194071D01*
X43565704Y-22142107D01*
X43565709Y-22142104D01*
X43575912Y-22131900D01*
X43575914Y-22131900D01*
X43669100Y-22038714D01*
X43734992Y-21924586D01*
X43758273Y-21837701D01*
X43769100Y-21797293D01*
X43769100Y-21665508D01*
X43769100Y-20732689D01*
X43788785Y-20665650D01*
X43841589Y-20619895D01*
X43910747Y-20609951D01*
X43974303Y-20638976D01*
X43980781Y-20645008D01*
X66596238Y-43260465D01*
X66670461Y-43303318D01*
X66753247Y-43325500D01*
X69775500Y-43325500D01*
X69842539Y-43345185D01*
X69888294Y-43397989D01*
X69899500Y-43449500D01*
X69899500Y-43919752D01*
X69911131Y-43978229D01*
X69911132Y-43978230D01*
X69955447Y-44044552D01*
X70021769Y-44088867D01*
X70021770Y-44088868D01*
X70080247Y-44100499D01*
X70080250Y-44100500D01*
X70080252Y-44100500D01*
X71919750Y-44100500D01*
X71919751Y-44100499D01*
X71934568Y-44097552D01*
X71978229Y-44088868D01*
X71978229Y-44088867D01*
X71978231Y-44088867D01*
X72044552Y-44044552D01*
X72088867Y-43978231D01*
X72088867Y-43978229D01*
X72088868Y-43978229D01*
X72100499Y-43919752D01*
X72100500Y-43919750D01*
X72100500Y-42080249D01*
X72100499Y-42080247D01*
X72088868Y-42021770D01*
X72088867Y-42021769D01*
X72044552Y-41955447D01*
X71978230Y-41911132D01*
X71978229Y-41911131D01*
X71919752Y-41899500D01*
X71919748Y-41899500D01*
X70080252Y-41899500D01*
X70080247Y-41899500D01*
X70021770Y-41911131D01*
X70021769Y-41911132D01*
X69955447Y-41955447D01*
X69911132Y-42021769D01*
X69911131Y-42021770D01*
X69899500Y-42080247D01*
X69899500Y-42550500D01*
X69879815Y-42617539D01*
X69827011Y-42663294D01*
X69775500Y-42674500D01*
X66982289Y-42674500D01*
X66915250Y-42654815D01*
X66894608Y-42638181D01*
X60989816Y-36733389D01*
X69899500Y-36733389D01*
X69899500Y-36906611D01*
X69926598Y-37077701D01*
X69980127Y-37242445D01*
X70058768Y-37396788D01*
X70160586Y-37536928D01*
X70283072Y-37659414D01*
X70423212Y-37761232D01*
X70577555Y-37839873D01*
X70742299Y-37893402D01*
X70913389Y-37920500D01*
X70913390Y-37920500D01*
X71086610Y-37920500D01*
X71086611Y-37920500D01*
X71257701Y-37893402D01*
X71422445Y-37839873D01*
X71576788Y-37761232D01*
X71716928Y-37659414D01*
X71839414Y-37536928D01*
X71941232Y-37396788D01*
X72019873Y-37242445D01*
X72073402Y-37077701D01*
X72100500Y-36906611D01*
X72100500Y-36733389D01*
X72073402Y-36562299D01*
X72019873Y-36397555D01*
X71941232Y-36243212D01*
X71839414Y-36103072D01*
X71716928Y-35980586D01*
X71576788Y-35878768D01*
X71422445Y-35800127D01*
X71257701Y-35746598D01*
X71257699Y-35746597D01*
X71257698Y-35746597D01*
X71126271Y-35725781D01*
X71086611Y-35719500D01*
X70913389Y-35719500D01*
X70873728Y-35725781D01*
X70742302Y-35746597D01*
X70577552Y-35800128D01*
X70423211Y-35878768D01*
X70343256Y-35936859D01*
X70283072Y-35980586D01*
X70283070Y-35980588D01*
X70283069Y-35980588D01*
X70160588Y-36103069D01*
X70160588Y-36103070D01*
X70160586Y-36103072D01*
X70116859Y-36163256D01*
X70058768Y-36243211D01*
X69980128Y-36397552D01*
X69926597Y-36562302D01*
X69911632Y-36656788D01*
X69899500Y-36733389D01*
X60989816Y-36733389D01*
X44888608Y-20632181D01*
X44855123Y-20570858D01*
X44860107Y-20501166D01*
X44901979Y-20445233D01*
X44967443Y-20420816D01*
X44976289Y-20420500D01*
X46288811Y-20420500D01*
X46355850Y-20440185D01*
X46376492Y-20456819D01*
X59123694Y-33204020D01*
X59123704Y-33204031D01*
X59128034Y-33208361D01*
X59128035Y-33208362D01*
X59188638Y-33268965D01*
X59225750Y-33290391D01*
X59225752Y-33290393D01*
X59262858Y-33311817D01*
X59262860Y-33311817D01*
X59262861Y-33311818D01*
X59345647Y-33334001D01*
X59345649Y-33334001D01*
X59438949Y-33334001D01*
X59438965Y-33334000D01*
X70090296Y-33334000D01*
X70157335Y-33353685D01*
X70203090Y-33406489D01*
X70213034Y-33475647D01*
X70184009Y-33539203D01*
X70177977Y-33545681D01*
X70160588Y-33563069D01*
X70160588Y-33563070D01*
X70160586Y-33563072D01*
X70121013Y-33617539D01*
X70058768Y-33703211D01*
X69980128Y-33857552D01*
X69926597Y-34022302D01*
X69899500Y-34193389D01*
X69899500Y-34366610D01*
X69926122Y-34534701D01*
X69926598Y-34537701D01*
X69980127Y-34702445D01*
X70058768Y-34856788D01*
X70160586Y-34996928D01*
X70283072Y-35119414D01*
X70423212Y-35221232D01*
X70577555Y-35299873D01*
X70742299Y-35353402D01*
X70913389Y-35380500D01*
X70913390Y-35380500D01*
X71086610Y-35380500D01*
X71086611Y-35380500D01*
X71257701Y-35353402D01*
X71422445Y-35299873D01*
X71576788Y-35221232D01*
X71716928Y-35119414D01*
X71839414Y-34996928D01*
X71941232Y-34856788D01*
X72019873Y-34702445D01*
X72073402Y-34537701D01*
X72100500Y-34366611D01*
X72100500Y-34193389D01*
X72073402Y-34022299D01*
X72019873Y-33857555D01*
X71941232Y-33703212D01*
X71839414Y-33563072D01*
X71716928Y-33440586D01*
X71713483Y-33437141D01*
X71714953Y-33435670D01*
X71681541Y-33384435D01*
X71681074Y-33314567D01*
X71712599Y-33261027D01*
X72453852Y-32519772D01*
X72453857Y-32519769D01*
X72464060Y-32509565D01*
X72464062Y-32509565D01*
X72524665Y-32448962D01*
X72549998Y-32405084D01*
X72567518Y-32374739D01*
X72589700Y-32291953D01*
X72589700Y-32206247D01*
X72589700Y-22801347D01*
X72567518Y-22718562D01*
X72567518Y-22718561D01*
X72545543Y-22680499D01*
X72545541Y-22680497D01*
X72524667Y-22644341D01*
X72524666Y-22644340D01*
X72524665Y-22644338D01*
X72464062Y-22583735D01*
X72464061Y-22583734D01*
X72459731Y-22579404D01*
X72459720Y-22579394D01*
X72037299Y-22156973D01*
X72003814Y-22095650D01*
X72008798Y-22025958D01*
X72014492Y-22013003D01*
X72019873Y-22002445D01*
X72073402Y-21837701D01*
X72100500Y-21666611D01*
X72100500Y-21493389D01*
X72073402Y-21322299D01*
X72019873Y-21157555D01*
X71941232Y-21003212D01*
X71839414Y-20863072D01*
X71716928Y-20740586D01*
X71576788Y-20638768D01*
X71422445Y-20560127D01*
X71257701Y-20506598D01*
X71257699Y-20506597D01*
X71257698Y-20506597D01*
X71126271Y-20485781D01*
X71086611Y-20479500D01*
X70913389Y-20479500D01*
X70873728Y-20485781D01*
X70742302Y-20506597D01*
X70577552Y-20560128D01*
X70423211Y-20638768D01*
X70414623Y-20645008D01*
X70283072Y-20740586D01*
X70283070Y-20740588D01*
X70283069Y-20740588D01*
X70160588Y-20863069D01*
X70160588Y-20863070D01*
X70160586Y-20863072D01*
X70125669Y-20911131D01*
X70058768Y-21003211D01*
X69980128Y-21157552D01*
X69926597Y-21322302D01*
X69918194Y-21375357D01*
X69899500Y-21493389D01*
X69899500Y-21666611D01*
X69926598Y-21837701D01*
X69980126Y-22002443D01*
X69980129Y-22002450D01*
X70029706Y-22099752D01*
X70042602Y-22168421D01*
X70016325Y-22233161D01*
X69959219Y-22273418D01*
X69889413Y-22276410D01*
X69831540Y-22243727D01*
X66537306Y-18949493D01*
X69850000Y-18949493D01*
X69850000Y-19130506D01*
X69878317Y-19309293D01*
X69934251Y-19481444D01*
X69934252Y-19481447D01*
X70016432Y-19642731D01*
X70087424Y-19740442D01*
X70087425Y-19740443D01*
X70556329Y-19271538D01*
X70599901Y-19347007D01*
X70692993Y-19440099D01*
X70768460Y-19483670D01*
X70299555Y-19952574D01*
X70397268Y-20023567D01*
X70558552Y-20105747D01*
X70558555Y-20105748D01*
X70730706Y-20161682D01*
X70909494Y-20190000D01*
X71090506Y-20190000D01*
X71269293Y-20161682D01*
X71441444Y-20105748D01*
X71441447Y-20105747D01*
X71602730Y-20023568D01*
X71700442Y-19952574D01*
X71700443Y-19952574D01*
X71231539Y-19483670D01*
X71307007Y-19440099D01*
X71400099Y-19347007D01*
X71443670Y-19271538D01*
X71912574Y-19740443D01*
X71912574Y-19740442D01*
X71983568Y-19642730D01*
X72065747Y-19481447D01*
X72065748Y-19481444D01*
X72121682Y-19309293D01*
X72150000Y-19130506D01*
X72150000Y-18949493D01*
X72121682Y-18770706D01*
X72065748Y-18598555D01*
X72065747Y-18598552D01*
X71983567Y-18437268D01*
X71912574Y-18339556D01*
X71912574Y-18339555D01*
X71443670Y-18808460D01*
X71400099Y-18732993D01*
X71307007Y-18639901D01*
X71231539Y-18596329D01*
X71700443Y-18127425D01*
X71700442Y-18127424D01*
X71602731Y-18056432D01*
X71441447Y-17974252D01*
X71441444Y-17974251D01*
X71269293Y-17918317D01*
X71090506Y-17890000D01*
X70909494Y-17890000D01*
X70730706Y-17918317D01*
X70558555Y-17974251D01*
X70558552Y-17974252D01*
X70397265Y-18056434D01*
X70299556Y-18127423D01*
X70299556Y-18127425D01*
X70768461Y-18596329D01*
X70692993Y-18639901D01*
X70599901Y-18732993D01*
X70556329Y-18808460D01*
X70087425Y-18339556D01*
X70087423Y-18339556D01*
X70016434Y-18437265D01*
X69934252Y-18598552D01*
X69934251Y-18598555D01*
X69878317Y-18770706D01*
X69850000Y-18949493D01*
X66537306Y-18949493D01*
X63478206Y-15890393D01*
X63168060Y-15580247D01*
X69899500Y-15580247D01*
X69899500Y-17419752D01*
X69911131Y-17478229D01*
X69911132Y-17478230D01*
X69955447Y-17544552D01*
X70021769Y-17588867D01*
X70021770Y-17588868D01*
X70080247Y-17600499D01*
X70080250Y-17600500D01*
X70080252Y-17600500D01*
X71919750Y-17600500D01*
X71919751Y-17600499D01*
X71934568Y-17597552D01*
X71978229Y-17588868D01*
X71978229Y-17588867D01*
X71978231Y-17588867D01*
X72044552Y-17544552D01*
X72088867Y-17478231D01*
X72088867Y-17478229D01*
X72088868Y-17478229D01*
X72100499Y-17419752D01*
X72100500Y-17419750D01*
X72100500Y-15580249D01*
X72100499Y-15580247D01*
X72088868Y-15521770D01*
X72088867Y-15521769D01*
X72044552Y-15455447D01*
X71978230Y-15411132D01*
X71978229Y-15411131D01*
X71919752Y-15399500D01*
X71919748Y-15399500D01*
X70080252Y-15399500D01*
X70080247Y-15399500D01*
X70021770Y-15411131D01*
X70021769Y-15411132D01*
X69955447Y-15455447D01*
X69911132Y-15521769D01*
X69911131Y-15521770D01*
X69899500Y-15580247D01*
X63168060Y-15580247D01*
X58037307Y-10449493D01*
X69850000Y-10449493D01*
X69850000Y-10630506D01*
X69878317Y-10809293D01*
X69934251Y-10981444D01*
X69934252Y-10981447D01*
X70016432Y-11142731D01*
X70087424Y-11240442D01*
X70087425Y-11240443D01*
X70556329Y-10771538D01*
X70599901Y-10847007D01*
X70692993Y-10940099D01*
X70768460Y-10983670D01*
X70299555Y-11452574D01*
X70397268Y-11523567D01*
X70558552Y-11605747D01*
X70558555Y-11605748D01*
X70730706Y-11661682D01*
X70909494Y-11690000D01*
X71090506Y-11690000D01*
X71269293Y-11661682D01*
X71441444Y-11605748D01*
X71441447Y-11605747D01*
X71602730Y-11523568D01*
X71700442Y-11452574D01*
X71700443Y-11452574D01*
X71231539Y-10983670D01*
X71307007Y-10940099D01*
X71400099Y-10847007D01*
X71443670Y-10771538D01*
X71912574Y-11240443D01*
X71912574Y-11240442D01*
X71983568Y-11142730D01*
X72065747Y-10981447D01*
X72065748Y-10981444D01*
X72121682Y-10809293D01*
X72150000Y-10630506D01*
X72150000Y-10449493D01*
X72121682Y-10270706D01*
X72065748Y-10098555D01*
X72065747Y-10098552D01*
X71983567Y-9937268D01*
X71912574Y-9839556D01*
X71912574Y-9839555D01*
X71443670Y-10308460D01*
X71400099Y-10232993D01*
X71307007Y-10139901D01*
X71231539Y-10096329D01*
X71700443Y-9627425D01*
X71700442Y-9627424D01*
X71602731Y-9556432D01*
X71441447Y-9474252D01*
X71441444Y-9474251D01*
X71269293Y-9418317D01*
X71090506Y-9390000D01*
X70909494Y-9390000D01*
X70730706Y-9418317D01*
X70558555Y-9474251D01*
X70558552Y-9474252D01*
X70397265Y-9556434D01*
X70299556Y-9627423D01*
X70299556Y-9627425D01*
X70768461Y-10096329D01*
X70692993Y-10139901D01*
X70599901Y-10232993D01*
X70556329Y-10308460D01*
X70087425Y-9839556D01*
X70087423Y-9839556D01*
X70016434Y-9937265D01*
X69934252Y-10098552D01*
X69934251Y-10098555D01*
X69878317Y-10270706D01*
X69850000Y-10449493D01*
X58037307Y-10449493D01*
X56247314Y-8659500D01*
X56162444Y-8610500D01*
X56133187Y-8593608D01*
X56056234Y-8572989D01*
X56005892Y-8559500D01*
X56005891Y-8559500D01*
X47293842Y-8559500D01*
X47226803Y-8539815D01*
X47181048Y-8487011D01*
X47170351Y-8446725D01*
X47169086Y-8432804D01*
X47118478Y-8270394D01*
X47030472Y-8124815D01*
X47030470Y-8124813D01*
X47030469Y-8124811D01*
X46910188Y-8004530D01*
X46764606Y-7916522D01*
X46764600Y-7916520D01*
X46714000Y-7900753D01*
X46655854Y-7862016D01*
X46627880Y-7797991D01*
X46631587Y-7763719D01*
X45600000Y-6732132D01*
X44567285Y-7764844D01*
X44569857Y-7810566D01*
X44535444Y-7871373D01*
X44485997Y-7900753D01*
X44435396Y-7916521D01*
X44289811Y-8004530D01*
X44169530Y-8124811D01*
X44081522Y-8270393D01*
X44030913Y-8432807D01*
X44024500Y-8503386D01*
X44024500Y-9612323D01*
X44004815Y-9679362D01*
X43988181Y-9700004D01*
X42961286Y-10726900D01*
X42868102Y-10820083D01*
X42868100Y-10820086D01*
X42802208Y-10934212D01*
X42768100Y-11061508D01*
X42768100Y-18866940D01*
X42748415Y-18933979D01*
X42695611Y-18979734D01*
X42626453Y-18989678D01*
X42612007Y-18986715D01*
X42585953Y-18979734D01*
X42509692Y-18959300D01*
X42377908Y-18959300D01*
X42250612Y-18993408D01*
X42136486Y-19059300D01*
X42136483Y-19059302D01*
X42097805Y-19097981D01*
X42036482Y-19131466D01*
X42010124Y-19134300D01*
X36134722Y-19134300D01*
X36067683Y-19114615D01*
X36021928Y-19061811D01*
X36011984Y-18992653D01*
X36014943Y-18978223D01*
X36036200Y-18898892D01*
X36036200Y-18767108D01*
X36002092Y-18639814D01*
X35936200Y-18525686D01*
X35897519Y-18487005D01*
X35864034Y-18425682D01*
X35861200Y-18399324D01*
X35861200Y-17576249D01*
X35861200Y-17576247D01*
X35839018Y-17493461D01*
X35796165Y-17419238D01*
X30951738Y-12574811D01*
X30918253Y-12513488D01*
X30923237Y-12443796D01*
X30933299Y-12422984D01*
X30953478Y-12389606D01*
X31004086Y-12227196D01*
X31010500Y-12156616D01*
X31010500Y-11043384D01*
X31004086Y-10972804D01*
X30953478Y-10810394D01*
X30865472Y-10664815D01*
X30865470Y-10664813D01*
X30865469Y-10664811D01*
X30745188Y-10544530D01*
X30745185Y-10544528D01*
X30599606Y-10456522D01*
X30573493Y-10448385D01*
X30515346Y-10409648D01*
X30487372Y-10345623D01*
X30498453Y-10276638D01*
X30545072Y-10224595D01*
X30573492Y-10211615D01*
X30599606Y-10203478D01*
X30745185Y-10115472D01*
X30865472Y-9995185D01*
X30953478Y-9849606D01*
X31004086Y-9687196D01*
X31010500Y-9616616D01*
X31010500Y-8503384D01*
X31004086Y-8432804D01*
X30953478Y-8270394D01*
X30865472Y-8124815D01*
X30865470Y-8124813D01*
X30865469Y-8124811D01*
X30745188Y-8004530D01*
X30745185Y-8004528D01*
X30599606Y-7916522D01*
X30573493Y-7908385D01*
X30515346Y-7869648D01*
X30487372Y-7805623D01*
X30498453Y-7736638D01*
X30545072Y-7684595D01*
X30573492Y-7671615D01*
X30599606Y-7663478D01*
X30745185Y-7575472D01*
X30865472Y-7455185D01*
X30953478Y-7309606D01*
X31004086Y-7147196D01*
X31010500Y-7076616D01*
X31010500Y-5970013D01*
X43975000Y-5970013D01*
X43975000Y-7069971D01*
X43975001Y-7069987D01*
X43985494Y-7172697D01*
X44040641Y-7339119D01*
X44040643Y-7339124D01*
X44132684Y-7488345D01*
X44256655Y-7612316D01*
X44256659Y-7612319D01*
X44280710Y-7627154D01*
X44280713Y-7627154D01*
X45387868Y-6520000D01*
X45387868Y-6519999D01*
X45812132Y-6519999D01*
X45812132Y-6520000D01*
X46919286Y-7627154D01*
X46943344Y-7612316D01*
X47067315Y-7488345D01*
X47159356Y-7339124D01*
X47159358Y-7339119D01*
X47214505Y-7172697D01*
X47214506Y-7172690D01*
X47224999Y-7069986D01*
X47224999Y-5970028D01*
X47224998Y-5970012D01*
X47214505Y-5867302D01*
X47159358Y-5700880D01*
X47159356Y-5700875D01*
X47067317Y-5551657D01*
X46943343Y-5427682D01*
X46919287Y-5412844D01*
X46919286Y-5412844D01*
X45812132Y-6519999D01*
X45387868Y-6519999D01*
X44280712Y-5412843D01*
X44256657Y-5427682D01*
X44256653Y-5427685D01*
X44132684Y-5551654D01*
X44040643Y-5700875D01*
X44040641Y-5700880D01*
X43985494Y-5867302D01*
X43985493Y-5867309D01*
X43975000Y-5970013D01*
X31010500Y-5970013D01*
X31010500Y-5963384D01*
X31004086Y-5892804D01*
X30999177Y-5877052D01*
X30997838Y-5865573D01*
X31001858Y-5842072D01*
X31001465Y-5818231D01*
X31007641Y-5808261D01*
X31009619Y-5796704D01*
X31025705Y-5779108D01*
X31038265Y-5758838D01*
X31048851Y-5753791D01*
X31056763Y-5745137D01*
X31079811Y-5739030D01*
X31101334Y-5728770D01*
X31121002Y-5727200D01*
X31248790Y-5727200D01*
X31248792Y-5727200D01*
X31376086Y-5693092D01*
X31490214Y-5627200D01*
X31583400Y-5534014D01*
X31649292Y-5419886D01*
X31683400Y-5292592D01*
X31683400Y-5160808D01*
X31649292Y-5033514D01*
X31583400Y-4919386D01*
X31490214Y-4826200D01*
X31392191Y-4769606D01*
X31376087Y-4760308D01*
X31312439Y-4743254D01*
X31248792Y-4726200D01*
X31248791Y-4726200D01*
X31194089Y-4726200D01*
X31127050Y-4706515D01*
X31106408Y-4689881D01*
X31046680Y-4630153D01*
X31013195Y-4568830D01*
X31010710Y-4539426D01*
X31010500Y-4539426D01*
X31010500Y-4536937D01*
X31010490Y-4536819D01*
X31010498Y-4536633D01*
X31010500Y-4536616D01*
X31010500Y-3423384D01*
X31004086Y-3352804D01*
X30953478Y-3190394D01*
X30908050Y-3115248D01*
X30890215Y-3047696D01*
X30911732Y-2981222D01*
X30965773Y-2936934D01*
X31014168Y-2927100D01*
X43787924Y-2927100D01*
X43854963Y-2946785D01*
X43875605Y-2963419D01*
X44033519Y-3121333D01*
X44067004Y-3182656D01*
X44064224Y-3245902D01*
X44030914Y-3352803D01*
X44030914Y-3352804D01*
X44024500Y-3423384D01*
X44024500Y-4536616D01*
X44026423Y-4557778D01*
X44030913Y-4607192D01*
X44030913Y-4607194D01*
X44030914Y-4607196D01*
X44081522Y-4769606D01*
X44115734Y-4826200D01*
X44169530Y-4915188D01*
X44289811Y-5035469D01*
X44289813Y-5035470D01*
X44289815Y-5035472D01*
X44435394Y-5123478D01*
X44485996Y-5139246D01*
X44544143Y-5177983D01*
X44572117Y-5242008D01*
X44568410Y-5276279D01*
X45600000Y-6307868D01*
X45600001Y-6307868D01*
X46632713Y-5275153D01*
X46630142Y-5229434D01*
X46664555Y-5168627D01*
X46714000Y-5139246D01*
X46764606Y-5123478D01*
X46910185Y-5035472D01*
X47030472Y-4915185D01*
X47118478Y-4769606D01*
X47169086Y-4607196D01*
X47170351Y-4593274D01*
X47196023Y-4528293D01*
X47252752Y-4487506D01*
X47293842Y-4480500D01*
X65319624Y-4480500D01*
X65386663Y-4500185D01*
X65407305Y-4516819D01*
X69197800Y-8307314D01*
X69290986Y-8400500D01*
X69405114Y-8466392D01*
X69532408Y-8500500D01*
X69664193Y-8500500D01*
X69775500Y-8500500D01*
X69842539Y-8520185D01*
X69888294Y-8572989D01*
X69899500Y-8624500D01*
X69899500Y-8919752D01*
X69911131Y-8978229D01*
X69911132Y-8978230D01*
X69955447Y-9044552D01*
X70021769Y-9088867D01*
X70021770Y-9088868D01*
X70080247Y-9100499D01*
X70080250Y-9100500D01*
X70080252Y-9100500D01*
X71919750Y-9100500D01*
X71919751Y-9100499D01*
X71934568Y-9097552D01*
X71978229Y-9088868D01*
X71978229Y-9088867D01*
X71978231Y-9088867D01*
X72044552Y-9044552D01*
X72088867Y-8978231D01*
X72088867Y-8978229D01*
X72088868Y-8978229D01*
X72100499Y-8919752D01*
X72100500Y-8919750D01*
X72100500Y-7080249D01*
X72100499Y-7080247D01*
X72088868Y-7021770D01*
X72088867Y-7021769D01*
X72044552Y-6955447D01*
X71978230Y-6911132D01*
X71978229Y-6911131D01*
X71919752Y-6899500D01*
X71919748Y-6899500D01*
X70080252Y-6899500D01*
X70080247Y-6899500D01*
X70021770Y-6911131D01*
X70021769Y-6911132D01*
X69955447Y-6955447D01*
X69911132Y-7021769D01*
X69911131Y-7021770D01*
X69899500Y-7080247D01*
X69899500Y-7294024D01*
X69879815Y-7361063D01*
X69827011Y-7406818D01*
X69757853Y-7416762D01*
X69694297Y-7387737D01*
X69687819Y-7381705D01*
X65885616Y-3579502D01*
X65885614Y-3579500D01*
X65828550Y-3546554D01*
X65771487Y-3513608D01*
X65707839Y-3496554D01*
X65644192Y-3479500D01*
X65644191Y-3479500D01*
X47293842Y-3479500D01*
X47226803Y-3459815D01*
X47181048Y-3407011D01*
X47170351Y-3366725D01*
X47169086Y-3352804D01*
X47118478Y-3190394D01*
X47030472Y-3044815D01*
X47030470Y-3044813D01*
X47030469Y-3044811D01*
X46910188Y-2924530D01*
X46859211Y-2893713D01*
X70649500Y-2893713D01*
X70649500Y-3106287D01*
X70682754Y-3316243D01*
X70717566Y-3423384D01*
X70748444Y-3518414D01*
X70844951Y-3707820D01*
X70969890Y-3879786D01*
X71120213Y-4030109D01*
X71292179Y-4155048D01*
X71292181Y-4155049D01*
X71292184Y-4155051D01*
X71481588Y-4251557D01*
X71683757Y-4317246D01*
X71893713Y-4350500D01*
X71893714Y-4350500D01*
X72106286Y-4350500D01*
X72106287Y-4350500D01*
X72316243Y-4317246D01*
X72518412Y-4251557D01*
X72707816Y-4155051D01*
X72729789Y-4139086D01*
X72879786Y-4030109D01*
X72879788Y-4030106D01*
X72879792Y-4030104D01*
X73030104Y-3879792D01*
X73030106Y-3879788D01*
X73030109Y-3879786D01*
X73155048Y-3707820D01*
X73155047Y-3707820D01*
X73155051Y-3707816D01*
X73251557Y-3518412D01*
X73317246Y-3316243D01*
X73350500Y-3106287D01*
X73350500Y-2893713D01*
X73317246Y-2683757D01*
X73251557Y-2481588D01*
X73155051Y-2292184D01*
X73155049Y-2292181D01*
X73155048Y-2292179D01*
X73030109Y-2120213D01*
X72879786Y-1969890D01*
X72707820Y-1844951D01*
X72518414Y-1748444D01*
X72518413Y-1748443D01*
X72518412Y-1748443D01*
X72316243Y-1682754D01*
X72316241Y-1682753D01*
X72316240Y-1682753D01*
X72154957Y-1657208D01*
X72106287Y-1649500D01*
X71893713Y-1649500D01*
X71845042Y-1657208D01*
X71683760Y-1682753D01*
X71481585Y-1748444D01*
X71292179Y-1844951D01*
X71120213Y-1969890D01*
X70969890Y-2120213D01*
X70844951Y-2292179D01*
X70748444Y-2481585D01*
X70682753Y-2683760D01*
X70666574Y-2785913D01*
X70649500Y-2893713D01*
X46859211Y-2893713D01*
X46764606Y-2836522D01*
X46602196Y-2785914D01*
X46602194Y-2785913D01*
X46602192Y-2785913D01*
X46552778Y-2781423D01*
X46531616Y-2779500D01*
X46531613Y-2779500D01*
X45158676Y-2779500D01*
X45091637Y-2759815D01*
X45070995Y-2743181D01*
X44353916Y-2026102D01*
X44353914Y-2026100D01*
X44296850Y-1993154D01*
X44239787Y-1960208D01*
X44176139Y-1943154D01*
X44112492Y-1926100D01*
X13040992Y-1926100D01*
X12909208Y-1926100D01*
X12781912Y-1960208D01*
X12667786Y-2026100D01*
X12667783Y-2026102D01*
X5312181Y-9381705D01*
X5250858Y-9415190D01*
X5181166Y-9410206D01*
X5125233Y-9368334D01*
X5100816Y-9302870D01*
X5100500Y-9294024D01*
X5100500Y-9080249D01*
X5100499Y-9080247D01*
X5088868Y-9021770D01*
X5088867Y-9021769D01*
X5044552Y-8955447D01*
X4978230Y-8911132D01*
X4978229Y-8911131D01*
X4919752Y-8899500D01*
X4919748Y-8899500D01*
X3080252Y-8899500D01*
X3080247Y-8899500D01*
X3021770Y-8911131D01*
X3021769Y-8911132D01*
X2955447Y-8955447D01*
X2911132Y-9021769D01*
X2911131Y-9021770D01*
X2899500Y-9080247D01*
X2899500Y-10919752D01*
X2911131Y-10978229D01*
X2911132Y-10978230D01*
X2955447Y-11044552D01*
X3021769Y-11088867D01*
X3021770Y-11088868D01*
X3080247Y-11100499D01*
X3080250Y-11100500D01*
X3080252Y-11100500D01*
X4919750Y-11100500D01*
X4919751Y-11100499D01*
X4934568Y-11097552D01*
X4978229Y-11088868D01*
X4978229Y-11088867D01*
X4978231Y-11088867D01*
X5044552Y-11044552D01*
X5088867Y-10978231D01*
X5088867Y-10978229D01*
X5088868Y-10978229D01*
X5100499Y-10919752D01*
X5100500Y-10919750D01*
X5100500Y-10624500D01*
X5120185Y-10557461D01*
X5172989Y-10511706D01*
X5224500Y-10500500D01*
X5467590Y-10500500D01*
X5467592Y-10500500D01*
X5594886Y-10466392D01*
X5709014Y-10400500D01*
X13146095Y-2963419D01*
X13207418Y-2929934D01*
X13233776Y-2927100D01*
X27855832Y-2927100D01*
X27922871Y-2946785D01*
X27968626Y-2999589D01*
X27978570Y-3068747D01*
X27961949Y-3115247D01*
X27938443Y-3154132D01*
X27916522Y-3190393D01*
X27865913Y-3352807D01*
X27860988Y-3407011D01*
X27859500Y-3423384D01*
X27859500Y-4536616D01*
X27861423Y-4557778D01*
X27865913Y-4607192D01*
X27865913Y-4607194D01*
X27865914Y-4607196D01*
X27916522Y-4769606D01*
X27950734Y-4826200D01*
X28004530Y-4915188D01*
X28124811Y-5035469D01*
X28124813Y-5035470D01*
X28124815Y-5035472D01*
X28270394Y-5123478D01*
X28270397Y-5123479D01*
X28270396Y-5123479D01*
X28296505Y-5131615D01*
X28354653Y-5170352D01*
X28382627Y-5234378D01*
X28371545Y-5303363D01*
X28324927Y-5355406D01*
X28296505Y-5368385D01*
X28270397Y-5376520D01*
X28124811Y-5464530D01*
X28004530Y-5584811D01*
X27916522Y-5730393D01*
X27865913Y-5892807D01*
X27859500Y-5963386D01*
X27859500Y-6070500D01*
X27839815Y-6137539D01*
X27787011Y-6183294D01*
X27735500Y-6194500D01*
X20663847Y-6194500D01*
X20581059Y-6216682D01*
X20506838Y-6259535D01*
X20506835Y-6259537D01*
X5312181Y-21454192D01*
X5250858Y-21487677D01*
X5181166Y-21482693D01*
X5125233Y-21440821D01*
X5100816Y-21375357D01*
X5100500Y-21366511D01*
X5100500Y-21080249D01*
X5100499Y-21080247D01*
X5088868Y-21021770D01*
X5088867Y-21021769D01*
X5044552Y-20955447D01*
X4978230Y-20911132D01*
X4978229Y-20911131D01*
X4919752Y-20899500D01*
X4919748Y-20899500D01*
X3080252Y-20899500D01*
X3080247Y-20899500D01*
X3021770Y-20911131D01*
X3021769Y-20911132D01*
X2955447Y-20955447D01*
X2911132Y-21021769D01*
X2911131Y-21021770D01*
X2899500Y-21080247D01*
X2899500Y-22919752D01*
X2911131Y-22978229D01*
X2911132Y-22978230D01*
X2955447Y-23044552D01*
X3021769Y-23088867D01*
X3021770Y-23088868D01*
X3080247Y-23100499D01*
X3080250Y-23100500D01*
X3080252Y-23100500D01*
X4919750Y-23100500D01*
X4919751Y-23100499D01*
X4934568Y-23097552D01*
X4978229Y-23088868D01*
X4978229Y-23088867D01*
X4978231Y-23088867D01*
X5044552Y-23044552D01*
X5088867Y-22978231D01*
X5088867Y-22978229D01*
X5088868Y-22978229D01*
X5100499Y-22919752D01*
X5100500Y-22919750D01*
X5100500Y-22449500D01*
X5120185Y-22382461D01*
X5172989Y-22336706D01*
X5224500Y-22325500D01*
X5269551Y-22325500D01*
X5269553Y-22325500D01*
X5352339Y-22303318D01*
X5426562Y-22260465D01*
X20805208Y-6881819D01*
X20866531Y-6848334D01*
X20892889Y-6845500D01*
X27735500Y-6845500D01*
X27802539Y-6865185D01*
X27848294Y-6917989D01*
X27859500Y-6969500D01*
X27859500Y-7076616D01*
X27861423Y-7097778D01*
X27865913Y-7147192D01*
X27865913Y-7147194D01*
X27865914Y-7147196D01*
X27916522Y-7309606D01*
X27981300Y-7416762D01*
X28004530Y-7455188D01*
X28124811Y-7575469D01*
X28124813Y-7575470D01*
X28124815Y-7575472D01*
X28270394Y-7663478D01*
X28270397Y-7663479D01*
X28270396Y-7663479D01*
X28296505Y-7671615D01*
X28354653Y-7710352D01*
X28382627Y-7774378D01*
X28371545Y-7843363D01*
X28324927Y-7895406D01*
X28296505Y-7908385D01*
X28270397Y-7916520D01*
X28124811Y-8004530D01*
X28004530Y-8124811D01*
X27916522Y-8270393D01*
X27865913Y-8432807D01*
X27859500Y-8503386D01*
X27859500Y-8610500D01*
X27839815Y-8677539D01*
X27787011Y-8723294D01*
X27735500Y-8734500D01*
X19897147Y-8734500D01*
X19814362Y-8756682D01*
X19814355Y-8756685D01*
X19740144Y-8799530D01*
X19740136Y-8799536D01*
X12194992Y-16344681D01*
X12133669Y-16378166D01*
X12107311Y-16381000D01*
X12052608Y-16381000D01*
X11925312Y-16415108D01*
X11811186Y-16481000D01*
X11811183Y-16481002D01*
X11718002Y-16574183D01*
X11718000Y-16574186D01*
X11652108Y-16688312D01*
X11618000Y-16815608D01*
X11618000Y-16947391D01*
X11652108Y-17074687D01*
X11683755Y-17129500D01*
X11718000Y-17188814D01*
X11811186Y-17282000D01*
X11925314Y-17347892D01*
X12052608Y-17382000D01*
X12052610Y-17382000D01*
X12184390Y-17382000D01*
X12184392Y-17382000D01*
X12311686Y-17347892D01*
X12425814Y-17282000D01*
X12519000Y-17188814D01*
X12584892Y-17074686D01*
X12619000Y-16947392D01*
X12619000Y-16892689D01*
X12638685Y-16825650D01*
X12655319Y-16805008D01*
X20038508Y-9421819D01*
X20099831Y-9388334D01*
X20126189Y-9385500D01*
X27735500Y-9385500D01*
X27802539Y-9405185D01*
X27848294Y-9457989D01*
X27859500Y-9509500D01*
X27859500Y-9616613D01*
X27865913Y-9687192D01*
X27916522Y-9849606D01*
X28004530Y-9995188D01*
X28124811Y-10115469D01*
X28124813Y-10115470D01*
X28124815Y-10115472D01*
X28270394Y-10203478D01*
X28270397Y-10203479D01*
X28270396Y-10203479D01*
X28296505Y-10211615D01*
X28354653Y-10250352D01*
X28382627Y-10314378D01*
X28371545Y-10383363D01*
X28324927Y-10435406D01*
X28296505Y-10448385D01*
X28270397Y-10456520D01*
X28124811Y-10544530D01*
X28004530Y-10664811D01*
X27916522Y-10810393D01*
X27865913Y-10972807D01*
X27859500Y-11043386D01*
X27859500Y-12156613D01*
X27865913Y-12227192D01*
X27865913Y-12227194D01*
X27865914Y-12227196D01*
X27879472Y-12270706D01*
X27916522Y-12389606D01*
X28004530Y-12535188D01*
X28124811Y-12655469D01*
X28124813Y-12655470D01*
X28124815Y-12655472D01*
X28270394Y-12743478D01*
X28270397Y-12743479D01*
X28270396Y-12743479D01*
X28296505Y-12751615D01*
X28354653Y-12790352D01*
X28382627Y-12854378D01*
X28371545Y-12923363D01*
X28324927Y-12975406D01*
X28296505Y-12988385D01*
X28270397Y-12996520D01*
X28124811Y-13084530D01*
X28004530Y-13204811D01*
X27916522Y-13350393D01*
X27865913Y-13512807D01*
X27859500Y-13583386D01*
X27859500Y-14696613D01*
X27865913Y-14767192D01*
X27865913Y-14767194D01*
X27865914Y-14767196D01*
X27916522Y-14929606D01*
X27916523Y-14929607D01*
X27927354Y-14947525D01*
X27945189Y-15015080D01*
X27923670Y-15081553D01*
X27908917Y-15099354D01*
X26991637Y-16016635D01*
X26991635Y-16016638D01*
X26948782Y-16090859D01*
X26926600Y-16173647D01*
X26926600Y-28151640D01*
X26926599Y-28151658D01*
X26926599Y-28244956D01*
X26926600Y-28244960D01*
X26940326Y-28296182D01*
X26940326Y-28296184D01*
X26940327Y-28296184D01*
X26948782Y-28327738D01*
X26948783Y-28327740D01*
X26948784Y-28327743D01*
X26966419Y-28358288D01*
X26966420Y-28358290D01*
X26966419Y-28358290D01*
X26991630Y-28401956D01*
X26991634Y-28401961D01*
X26991635Y-28401962D01*
X27052238Y-28462565D01*
X27052239Y-28462565D01*
X27059305Y-28469631D01*
X27059312Y-28469637D01*
X30204085Y-31614322D01*
X30237571Y-31675644D01*
X30232587Y-31745336D01*
X30204086Y-31789685D01*
X27847067Y-34146705D01*
X27785744Y-34180190D01*
X27716052Y-34175206D01*
X27676832Y-34150000D01*
X26150000Y-34150000D01*
X26150000Y-34302811D01*
X26130315Y-34369850D01*
X26077511Y-34415605D01*
X26008353Y-34425549D01*
X25944797Y-34396524D01*
X25938319Y-34390492D01*
X25836819Y-34288992D01*
X25803334Y-34227669D01*
X25800500Y-34201311D01*
X25800500Y-33502155D01*
X26150000Y-33502155D01*
X26150000Y-33850000D01*
X26762500Y-33850000D01*
X27062500Y-33850000D01*
X27675000Y-33850000D01*
X27675000Y-33502172D01*
X27674999Y-33502155D01*
X27668598Y-33442627D01*
X27668596Y-33442620D01*
X27618354Y-33307913D01*
X27618350Y-33307906D01*
X27532190Y-33192812D01*
X27532187Y-33192809D01*
X27417093Y-33106649D01*
X27417086Y-33106645D01*
X27282379Y-33056403D01*
X27282372Y-33056401D01*
X27222844Y-33050000D01*
X27062500Y-33050000D01*
X27062500Y-33850000D01*
X26762500Y-33850000D01*
X26762500Y-33050000D01*
X26602155Y-33050000D01*
X26542627Y-33056401D01*
X26542620Y-33056403D01*
X26407913Y-33106645D01*
X26407906Y-33106649D01*
X26292812Y-33192809D01*
X26292809Y-33192812D01*
X26206649Y-33307906D01*
X26206645Y-33307913D01*
X26156403Y-33442620D01*
X26156401Y-33442627D01*
X26150000Y-33502155D01*
X25800500Y-33502155D01*
X25800500Y-33495730D01*
X25797646Y-33465300D01*
X25797646Y-33465298D01*
X25752793Y-33337119D01*
X25752792Y-33337117D01*
X25672150Y-33227850D01*
X25562882Y-33147207D01*
X25562880Y-33147206D01*
X25434700Y-33102353D01*
X25404270Y-33099500D01*
X25404266Y-33099500D01*
X24770734Y-33099500D01*
X24770730Y-33099500D01*
X24740300Y-33102353D01*
X24740298Y-33102353D01*
X24612119Y-33147206D01*
X24612117Y-33147207D01*
X24502850Y-33227850D01*
X24422207Y-33337117D01*
X24422206Y-33337119D01*
X24377353Y-33465298D01*
X24377353Y-33465300D01*
X24374500Y-33495730D01*
X24374500Y-33550500D01*
X24354815Y-33617539D01*
X24302011Y-33663294D01*
X24250500Y-33674500D01*
X8412888Y-33674500D01*
X8345849Y-33654815D01*
X8325207Y-33638181D01*
X6893273Y-32206247D01*
X5426562Y-30739535D01*
X5362761Y-30702699D01*
X5352340Y-30696682D01*
X5310946Y-30685591D01*
X5269553Y-30674500D01*
X5269552Y-30674500D01*
X5224500Y-30674500D01*
X5157461Y-30654815D01*
X5111706Y-30602011D01*
X5100500Y-30550500D01*
X5100500Y-30080249D01*
X5100499Y-30080247D01*
X5088868Y-30021770D01*
X5088867Y-30021769D01*
X5044552Y-29955447D01*
X4978230Y-29911132D01*
X4978229Y-29911131D01*
X4919752Y-29899500D01*
X4919748Y-29899500D01*
X3080252Y-29899500D01*
X3080247Y-29899500D01*
X3021770Y-29911131D01*
X3021769Y-29911132D01*
X2955447Y-29955447D01*
X2911132Y-30021769D01*
X2911131Y-30021770D01*
X2899500Y-30080247D01*
X2899500Y-31919752D01*
X2911131Y-31978229D01*
X2911132Y-31978230D01*
X2955447Y-32044552D01*
X3021769Y-32088867D01*
X3021770Y-32088868D01*
X3080247Y-32100499D01*
X3080250Y-32100500D01*
X3080252Y-32100500D01*
X4919750Y-32100500D01*
X4919751Y-32100499D01*
X4934568Y-32097552D01*
X4978229Y-32088868D01*
X4978229Y-32088867D01*
X4978231Y-32088867D01*
X5044552Y-32044552D01*
X5088867Y-31978231D01*
X5088867Y-31978229D01*
X5088868Y-31978229D01*
X5100499Y-31919752D01*
X5100500Y-31919750D01*
X5100500Y-31633488D01*
X5120185Y-31566449D01*
X5172989Y-31520694D01*
X5242147Y-31510750D01*
X5305703Y-31539775D01*
X5312181Y-31545807D01*
X7961894Y-34195520D01*
X7961904Y-34195531D01*
X7966234Y-34199861D01*
X7966235Y-34199862D01*
X8026838Y-34260465D01*
X8063950Y-34281891D01*
X8063952Y-34281893D01*
X8101058Y-34303317D01*
X8101060Y-34303317D01*
X8101061Y-34303318D01*
X8183847Y-34325501D01*
X8183849Y-34325501D01*
X8277149Y-34325501D01*
X8277165Y-34325500D01*
X24250500Y-34325500D01*
X24317539Y-34345185D01*
X24363294Y-34397989D01*
X24374500Y-34449500D01*
X24374500Y-34504269D01*
X24377353Y-34534699D01*
X24377353Y-34534701D01*
X24414375Y-34640500D01*
X24422207Y-34662882D01*
X24502850Y-34772150D01*
X24612118Y-34852793D01*
X24654845Y-34867744D01*
X24740299Y-34897646D01*
X24770730Y-34900500D01*
X24770734Y-34900500D01*
X25404270Y-34900500D01*
X25434690Y-34897647D01*
X25434691Y-34897646D01*
X25434699Y-34897646D01*
X25434706Y-34897643D01*
X25442066Y-34896036D01*
X25442778Y-34899298D01*
X25497464Y-34896402D01*
X25556552Y-34929379D01*
X25854734Y-35227561D01*
X25854735Y-35227562D01*
X25915338Y-35288165D01*
X25915340Y-35288166D01*
X25915344Y-35288169D01*
X25989555Y-35331014D01*
X25989562Y-35331018D01*
X26072347Y-35353200D01*
X26463000Y-35353200D01*
X26530039Y-35372885D01*
X26575794Y-35425689D01*
X26587000Y-35477200D01*
X26587000Y-38006778D01*
X26567315Y-38073817D01*
X26514511Y-38119572D01*
X26503956Y-38123819D01*
X26437117Y-38147207D01*
X26327850Y-38227850D01*
X26247207Y-38337117D01*
X26247206Y-38337119D01*
X26202353Y-38465298D01*
X26202353Y-38465300D01*
X26199500Y-38495730D01*
X26199500Y-39504269D01*
X26202353Y-39534699D01*
X26202353Y-39534701D01*
X26247206Y-39662880D01*
X26247207Y-39662882D01*
X26327850Y-39772150D01*
X26437118Y-39852793D01*
X26503958Y-39876181D01*
X26560731Y-39916901D01*
X26586478Y-39981854D01*
X26587000Y-39993221D01*
X26587000Y-43006778D01*
X26567315Y-43073817D01*
X26514511Y-43119572D01*
X26503956Y-43123819D01*
X26437117Y-43147207D01*
X26327850Y-43227850D01*
X26247207Y-43337117D01*
X26247206Y-43337119D01*
X26202353Y-43465298D01*
X26202353Y-43465300D01*
X26199500Y-43495730D01*
X26199500Y-44504269D01*
X26202353Y-44534699D01*
X26202353Y-44534701D01*
X26247206Y-44662880D01*
X26247207Y-44662882D01*
X26327850Y-44772150D01*
X26437118Y-44852793D01*
X26479845Y-44867744D01*
X26565299Y-44897646D01*
X26595730Y-44900500D01*
X26595734Y-44900500D01*
X27229270Y-44900500D01*
X27259699Y-44897646D01*
X27259701Y-44897646D01*
X27323790Y-44875219D01*
X27387882Y-44852793D01*
X27497150Y-44772150D01*
X27577793Y-44662882D01*
X27600227Y-44598768D01*
X27622646Y-44534701D01*
X27622646Y-44534699D01*
X27625500Y-44504269D01*
X27625500Y-43495730D01*
X27622646Y-43465300D01*
X27622646Y-43465298D01*
X27589006Y-43369163D01*
X27577793Y-43337118D01*
X27497150Y-43227850D01*
X27387882Y-43147207D01*
X27387879Y-43147206D01*
X27321044Y-43123819D01*
X27264268Y-43083097D01*
X27238522Y-43018144D01*
X27238000Y-43006778D01*
X27238000Y-39993221D01*
X27257685Y-39926182D01*
X27310489Y-39880427D01*
X27321022Y-39876188D01*
X27387882Y-39852793D01*
X27497150Y-39772150D01*
X27577793Y-39662882D01*
X27613362Y-39561231D01*
X27622646Y-39534701D01*
X27622646Y-39534699D01*
X27625500Y-39504269D01*
X27625500Y-38495730D01*
X27622646Y-38465300D01*
X27622646Y-38465298D01*
X27577793Y-38337119D01*
X27577792Y-38337117D01*
X27497150Y-38227850D01*
X27387882Y-38147207D01*
X27387879Y-38147206D01*
X27321044Y-38123819D01*
X27264268Y-38083097D01*
X27238522Y-38018144D01*
X27238000Y-38006778D01*
X27238000Y-35477200D01*
X27257685Y-35410161D01*
X27310489Y-35364406D01*
X27362000Y-35353200D01*
X27469251Y-35353200D01*
X27469253Y-35353200D01*
X27552039Y-35331018D01*
X27626262Y-35288165D01*
X30664414Y-32250011D01*
X30725735Y-32216528D01*
X30795427Y-32221512D01*
X30839773Y-32250013D01*
X32313183Y-33723487D01*
X32346667Y-33784811D01*
X32349500Y-33811166D01*
X32349500Y-34529269D01*
X32352353Y-34559699D01*
X32352353Y-34559701D01*
X32380627Y-34640500D01*
X32397207Y-34687882D01*
X32477850Y-34797150D01*
X32587118Y-34877793D01*
X32629845Y-34892744D01*
X32715299Y-34922646D01*
X32745730Y-34925500D01*
X32745734Y-34925500D01*
X33354270Y-34925500D01*
X33378612Y-34923216D01*
X33384699Y-34922646D01*
X33509547Y-34878959D01*
X33579323Y-34875397D01*
X33639951Y-34910126D01*
X33672178Y-34972119D01*
X33674500Y-34996001D01*
X33674500Y-40130352D01*
X33696682Y-40213140D01*
X33716476Y-40247423D01*
X33739535Y-40287362D01*
X33739537Y-40287364D01*
X35339992Y-41887819D01*
X35373477Y-41949142D01*
X35368493Y-42018834D01*
X35326621Y-42074767D01*
X35261157Y-42099184D01*
X35252311Y-42099500D01*
X34770730Y-42099500D01*
X34740300Y-42102353D01*
X34740298Y-42102353D01*
X34612119Y-42147206D01*
X34612117Y-42147207D01*
X34502850Y-42227850D01*
X34422207Y-42337117D01*
X34422206Y-42337119D01*
X34377353Y-42465298D01*
X34377353Y-42465300D01*
X34374500Y-42495730D01*
X34374500Y-43201311D01*
X34354815Y-43268350D01*
X34338181Y-43288992D01*
X25178992Y-52448181D01*
X25117669Y-52481666D01*
X25091311Y-52484500D01*
X4783730Y-52484500D01*
X4716691Y-52464815D01*
X4696049Y-52448181D01*
X4231539Y-51983670D01*
X4307007Y-51940099D01*
X4400099Y-51847007D01*
X4443670Y-51771539D01*
X4908631Y-52236500D01*
X4915440Y-52236500D01*
X4983568Y-52142730D01*
X5065747Y-51981447D01*
X5065748Y-51981444D01*
X5121682Y-51809293D01*
X5150000Y-51630506D01*
X5150000Y-51449493D01*
X5121682Y-51270706D01*
X5065748Y-51098555D01*
X5065747Y-51098552D01*
X4983567Y-50937268D01*
X4912574Y-50839556D01*
X4912574Y-50839555D01*
X4443670Y-51308460D01*
X4400099Y-51232993D01*
X4307007Y-51139901D01*
X4231539Y-51096329D01*
X4700443Y-50627425D01*
X4700442Y-50627424D01*
X4602731Y-50556432D01*
X4441447Y-50474252D01*
X4441444Y-50474251D01*
X4269293Y-50418317D01*
X4090506Y-50390000D01*
X3909494Y-50390000D01*
X3730706Y-50418317D01*
X3558555Y-50474251D01*
X3558552Y-50474252D01*
X3397265Y-50556434D01*
X3299556Y-50627423D01*
X3299556Y-50627425D01*
X3768461Y-51096329D01*
X3692993Y-51139901D01*
X3599901Y-51232993D01*
X3556329Y-51308460D01*
X3087425Y-50839556D01*
X3087423Y-50839556D01*
X3016434Y-50937265D01*
X2934252Y-51098552D01*
X2934251Y-51098555D01*
X2878317Y-51270706D01*
X2850000Y-51449493D01*
X2850000Y-51630506D01*
X2878317Y-51809293D01*
X2934251Y-51981444D01*
X2934252Y-51981447D01*
X3016432Y-52142731D01*
X3087424Y-52240442D01*
X3087425Y-52240443D01*
X3556329Y-51771538D01*
X3599901Y-51847007D01*
X3692993Y-51940099D01*
X3768460Y-51983670D01*
X3299555Y-52452574D01*
X3303821Y-52506778D01*
X3289456Y-52575155D01*
X3267884Y-52604187D01*
X2512837Y-53359235D01*
X2512833Y-53359241D01*
X2469981Y-53433461D01*
X2469982Y-53433462D01*
X2447800Y-53516247D01*
X500500Y-53516247D01*
X500500Y-48080247D01*
X2899500Y-48080247D01*
X2899500Y-49919752D01*
X2911131Y-49978229D01*
X2911132Y-49978230D01*
X2955447Y-50044552D01*
X3021769Y-50088867D01*
X3021770Y-50088868D01*
X3080247Y-50100499D01*
X3080250Y-50100500D01*
X3080252Y-50100500D01*
X4919750Y-50100500D01*
X4919751Y-50100499D01*
X4934568Y-50097552D01*
X4978229Y-50088868D01*
X4978229Y-50088867D01*
X4978231Y-50088867D01*
X5044552Y-50044552D01*
X5088867Y-49978231D01*
X5088867Y-49978229D01*
X5088868Y-49978229D01*
X5100499Y-49919752D01*
X5100500Y-49919750D01*
X5100500Y-48080249D01*
X5100499Y-48080247D01*
X5088868Y-48021770D01*
X5088867Y-48021769D01*
X5044552Y-47955447D01*
X4978230Y-47911132D01*
X4978229Y-47911131D01*
X4919752Y-47899500D01*
X4919748Y-47899500D01*
X3080252Y-47899500D01*
X3080247Y-47899500D01*
X3021770Y-47911131D01*
X3021769Y-47911132D01*
X2955447Y-47955447D01*
X2911132Y-48021769D01*
X2911131Y-48021770D01*
X2899500Y-48080247D01*
X500500Y-48080247D01*
X500500Y-41069493D01*
X2850000Y-41069493D01*
X2850000Y-41250506D01*
X2878317Y-41429293D01*
X2934251Y-41601444D01*
X2934252Y-41601447D01*
X3016432Y-41762731D01*
X3087424Y-41860442D01*
X3087425Y-41860443D01*
X3556329Y-41391538D01*
X3599901Y-41467007D01*
X3692993Y-41560099D01*
X3768460Y-41603670D01*
X3299555Y-42072574D01*
X3397268Y-42143567D01*
X3558552Y-42225747D01*
X3558555Y-42225748D01*
X3730706Y-42281682D01*
X3909494Y-42310000D01*
X4090506Y-42310000D01*
X4269293Y-42281682D01*
X4441444Y-42225748D01*
X4441447Y-42225747D01*
X4602730Y-42143568D01*
X4700442Y-42072574D01*
X4700443Y-42072574D01*
X4231539Y-41603670D01*
X4307007Y-41560099D01*
X4400099Y-41467007D01*
X4443670Y-41391539D01*
X4912574Y-41860443D01*
X4912574Y-41860442D01*
X4983568Y-41762730D01*
X5065747Y-41601447D01*
X5065748Y-41601444D01*
X5121682Y-41429293D01*
X5150000Y-41250506D01*
X5150000Y-41069493D01*
X5121682Y-40890706D01*
X5065748Y-40718555D01*
X5065747Y-40718552D01*
X4983567Y-40557268D01*
X4912574Y-40459556D01*
X4912574Y-40459555D01*
X4443670Y-40928460D01*
X4400099Y-40852993D01*
X4307007Y-40759901D01*
X4231539Y-40716329D01*
X4700443Y-40247425D01*
X4700442Y-40247424D01*
X4602731Y-40176432D01*
X4441447Y-40094252D01*
X4441444Y-40094251D01*
X4269293Y-40038317D01*
X4090506Y-40010000D01*
X3909494Y-40010000D01*
X3730706Y-40038317D01*
X3558555Y-40094251D01*
X3558552Y-40094252D01*
X3397265Y-40176434D01*
X3299556Y-40247423D01*
X3299556Y-40247425D01*
X3768461Y-40716329D01*
X3692993Y-40759901D01*
X3599901Y-40852993D01*
X3556329Y-40928460D01*
X3087425Y-40459556D01*
X3087423Y-40459556D01*
X3016434Y-40557265D01*
X2934252Y-40718552D01*
X2934251Y-40718555D01*
X2878317Y-40890706D01*
X2850000Y-41069493D01*
X500500Y-41069493D01*
X500500Y-38533389D01*
X2899500Y-38533389D01*
X2899500Y-38706611D01*
X2926598Y-38877701D01*
X2980127Y-39042445D01*
X3058768Y-39196788D01*
X3160586Y-39336928D01*
X3283072Y-39459414D01*
X3423212Y-39561232D01*
X3577555Y-39639873D01*
X3742299Y-39693402D01*
X3913389Y-39720500D01*
X3913390Y-39720500D01*
X4086610Y-39720500D01*
X4086611Y-39720500D01*
X4257701Y-39693402D01*
X4422445Y-39639873D01*
X4576788Y-39561232D01*
X4716928Y-39459414D01*
X4839414Y-39336928D01*
X4941232Y-39196788D01*
X5019873Y-39042445D01*
X5073402Y-38877701D01*
X5100500Y-38706611D01*
X5100500Y-38533389D01*
X5073402Y-38362299D01*
X5019873Y-38197555D01*
X4941232Y-38043212D01*
X4839414Y-37903072D01*
X4716928Y-37780586D01*
X4576788Y-37678768D01*
X4422445Y-37600127D01*
X4257701Y-37546598D01*
X4257699Y-37546597D01*
X4257698Y-37546597D01*
X4126271Y-37525781D01*
X4086611Y-37519500D01*
X3913389Y-37519500D01*
X3873728Y-37525781D01*
X3742302Y-37546597D01*
X3577552Y-37600128D01*
X3423211Y-37678768D01*
X3343256Y-37736859D01*
X3283072Y-37780586D01*
X3283070Y-37780588D01*
X3283069Y-37780588D01*
X3160588Y-37903069D01*
X3160588Y-37903070D01*
X3160586Y-37903072D01*
X3147924Y-37920500D01*
X3058768Y-38043211D01*
X2980128Y-38197552D01*
X2926597Y-38362302D01*
X2905464Y-38495734D01*
X2899500Y-38533389D01*
X500500Y-38533389D01*
X500500Y-35993389D01*
X2899500Y-35993389D01*
X2899500Y-36166611D01*
X2926598Y-36337701D01*
X2980127Y-36502445D01*
X3058768Y-36656788D01*
X3160586Y-36796928D01*
X3283072Y-36919414D01*
X3423212Y-37021232D01*
X3577555Y-37099873D01*
X3742299Y-37153402D01*
X3913389Y-37180500D01*
X3913390Y-37180500D01*
X4086610Y-37180500D01*
X4086611Y-37180500D01*
X4257701Y-37153402D01*
X4422445Y-37099873D01*
X4432994Y-37094497D01*
X4501662Y-37081600D01*
X4566404Y-37107874D01*
X4576973Y-37117300D01*
X11659534Y-44199861D01*
X11659535Y-44199862D01*
X11720138Y-44260465D01*
X11720140Y-44260466D01*
X11720144Y-44260469D01*
X11794355Y-44303314D01*
X11794362Y-44303318D01*
X11877147Y-44325500D01*
X11962852Y-44325500D01*
X24250500Y-44325500D01*
X24317539Y-44345185D01*
X24363294Y-44397989D01*
X24374500Y-44449500D01*
X24374500Y-44504269D01*
X24377353Y-44534699D01*
X24377353Y-44534701D01*
X24422206Y-44662880D01*
X24422207Y-44662882D01*
X24502850Y-44772150D01*
X24612118Y-44852793D01*
X24654845Y-44867744D01*
X24740299Y-44897646D01*
X24770730Y-44900500D01*
X24770734Y-44900500D01*
X25404270Y-44900500D01*
X25434699Y-44897646D01*
X25434701Y-44897646D01*
X25498790Y-44875219D01*
X25562882Y-44852793D01*
X25672150Y-44772150D01*
X25752793Y-44662882D01*
X25775227Y-44598768D01*
X25797646Y-44534701D01*
X25797646Y-44534699D01*
X25800500Y-44504269D01*
X25800500Y-43495730D01*
X25797646Y-43465300D01*
X25797646Y-43465298D01*
X25764006Y-43369163D01*
X25752793Y-43337118D01*
X25672150Y-43227850D01*
X25562882Y-43147207D01*
X25562880Y-43147206D01*
X25434700Y-43102353D01*
X25404270Y-43099500D01*
X25404266Y-43099500D01*
X24770734Y-43099500D01*
X24770730Y-43099500D01*
X24740300Y-43102353D01*
X24740298Y-43102353D01*
X24612119Y-43147206D01*
X24612117Y-43147207D01*
X24502850Y-43227850D01*
X24422207Y-43337117D01*
X24422206Y-43337119D01*
X24377353Y-43465298D01*
X24377353Y-43465300D01*
X24374500Y-43495730D01*
X24374500Y-43550500D01*
X24354815Y-43617539D01*
X24302011Y-43663294D01*
X24250500Y-43674500D01*
X12106189Y-43674500D01*
X12039150Y-43654815D01*
X12018508Y-43638181D01*
X5037300Y-36656973D01*
X5003815Y-36595650D01*
X5008799Y-36525958D01*
X5014494Y-36513000D01*
X5019873Y-36502445D01*
X5073402Y-36337701D01*
X5100500Y-36166611D01*
X5100500Y-35993389D01*
X5073402Y-35822299D01*
X5019873Y-35657555D01*
X4941232Y-35503212D01*
X4839414Y-35363072D01*
X4716928Y-35240586D01*
X4576788Y-35138768D01*
X4422445Y-35060127D01*
X4257701Y-35006598D01*
X4257699Y-35006597D01*
X4257698Y-35006597D01*
X4093057Y-34980521D01*
X4086611Y-34979500D01*
X3913389Y-34979500D01*
X3906943Y-34980521D01*
X3742302Y-35006597D01*
X3577552Y-35060128D01*
X3423211Y-35138768D01*
X3343256Y-35196859D01*
X3283072Y-35240586D01*
X3283070Y-35240588D01*
X3283069Y-35240588D01*
X3160588Y-35363069D01*
X3160588Y-35363070D01*
X3160586Y-35363072D01*
X3147924Y-35380500D01*
X3058768Y-35503211D01*
X2980128Y-35657552D01*
X2926597Y-35822302D01*
X2917654Y-35878768D01*
X2899500Y-35993389D01*
X500500Y-35993389D01*
X500500Y-33453389D01*
X2899500Y-33453389D01*
X2899500Y-33626611D01*
X2926598Y-33797701D01*
X2980127Y-33962445D01*
X3058768Y-34116788D01*
X3160586Y-34256928D01*
X3283072Y-34379414D01*
X3423212Y-34481232D01*
X3577555Y-34559873D01*
X3742299Y-34613402D01*
X3913389Y-34640500D01*
X3913390Y-34640500D01*
X4086610Y-34640500D01*
X4086611Y-34640500D01*
X4257701Y-34613402D01*
X4422445Y-34559873D01*
X4432994Y-34554497D01*
X4501662Y-34541600D01*
X4566404Y-34567874D01*
X4576973Y-34577300D01*
X9260138Y-39260465D01*
X9334361Y-39303318D01*
X9417147Y-39325500D01*
X24250500Y-39325500D01*
X24317539Y-39345185D01*
X24363294Y-39397989D01*
X24374500Y-39449500D01*
X24374500Y-39504269D01*
X24377353Y-39534699D01*
X24377353Y-39534701D01*
X24422206Y-39662880D01*
X24422207Y-39662882D01*
X24502850Y-39772150D01*
X24612118Y-39852793D01*
X24654845Y-39867744D01*
X24740299Y-39897646D01*
X24770730Y-39900500D01*
X24770734Y-39900500D01*
X25404270Y-39900500D01*
X25434699Y-39897646D01*
X25434701Y-39897646D01*
X25498790Y-39875219D01*
X25562882Y-39852793D01*
X25672150Y-39772150D01*
X25752793Y-39662882D01*
X25788362Y-39561231D01*
X25797646Y-39534701D01*
X25797646Y-39534699D01*
X25800500Y-39504269D01*
X25800500Y-38495730D01*
X25797646Y-38465300D01*
X25797646Y-38465298D01*
X25752793Y-38337119D01*
X25752792Y-38337117D01*
X25672150Y-38227850D01*
X25562882Y-38147207D01*
X25562880Y-38147206D01*
X25434700Y-38102353D01*
X25404270Y-38099500D01*
X25404266Y-38099500D01*
X24770734Y-38099500D01*
X24770730Y-38099500D01*
X24740300Y-38102353D01*
X24740298Y-38102353D01*
X24612119Y-38147206D01*
X24612117Y-38147207D01*
X24502850Y-38227850D01*
X24422207Y-38337117D01*
X24422206Y-38337119D01*
X24377353Y-38465298D01*
X24377353Y-38465300D01*
X24374500Y-38495730D01*
X24374500Y-38550500D01*
X24354815Y-38617539D01*
X24302011Y-38663294D01*
X24250500Y-38674500D01*
X9646189Y-38674500D01*
X9579150Y-38654815D01*
X9558508Y-38638181D01*
X5037300Y-34116973D01*
X5003815Y-34055650D01*
X5008799Y-33985958D01*
X5014494Y-33973000D01*
X5019873Y-33962445D01*
X5073402Y-33797701D01*
X5100500Y-33626611D01*
X5100500Y-33453389D01*
X5073402Y-33282299D01*
X5019873Y-33117555D01*
X4941232Y-32963212D01*
X4839414Y-32823072D01*
X4716928Y-32700586D01*
X4576788Y-32598768D01*
X4422445Y-32520127D01*
X4257701Y-32466598D01*
X4257699Y-32466597D01*
X4257698Y-32466597D01*
X4126271Y-32445781D01*
X4086611Y-32439500D01*
X3913389Y-32439500D01*
X3873728Y-32445781D01*
X3742302Y-32466597D01*
X3577552Y-32520128D01*
X3423211Y-32598768D01*
X3343256Y-32656859D01*
X3283072Y-32700586D01*
X3283070Y-32700588D01*
X3283069Y-32700588D01*
X3160588Y-32823069D01*
X3160588Y-32823070D01*
X3160586Y-32823072D01*
X3116859Y-32883256D01*
X3058768Y-32963211D01*
X2980128Y-33117552D01*
X2926597Y-33282302D01*
X2910421Y-33384435D01*
X2899500Y-33453389D01*
X500500Y-33453389D01*
X500500Y-24449493D01*
X2850000Y-24449493D01*
X2850000Y-24630506D01*
X2878317Y-24809293D01*
X2934251Y-24981444D01*
X2934252Y-24981447D01*
X3016432Y-25142731D01*
X3087424Y-25240442D01*
X3087425Y-25240443D01*
X3556329Y-24771538D01*
X3599901Y-24847007D01*
X3692993Y-24940099D01*
X3768460Y-24983670D01*
X3299555Y-25452574D01*
X3397268Y-25523567D01*
X3558552Y-25605747D01*
X3558555Y-25605748D01*
X3730706Y-25661682D01*
X3909494Y-25690000D01*
X4090506Y-25690000D01*
X4269293Y-25661682D01*
X4441444Y-25605748D01*
X4441447Y-25605747D01*
X4602730Y-25523568D01*
X4700442Y-25452574D01*
X4700443Y-25452574D01*
X4231539Y-24983670D01*
X4307007Y-24940099D01*
X4400099Y-24847007D01*
X4443670Y-24771539D01*
X4912574Y-25240443D01*
X4912574Y-25240442D01*
X4983568Y-25142730D01*
X5065747Y-24981447D01*
X5065748Y-24981444D01*
X5121682Y-24809293D01*
X5150000Y-24630506D01*
X5150000Y-24449493D01*
X5121682Y-24270706D01*
X5065748Y-24098555D01*
X5065747Y-24098552D01*
X4983567Y-23937268D01*
X4912574Y-23839556D01*
X4912574Y-23839555D01*
X4443670Y-24308460D01*
X4400099Y-24232993D01*
X4307007Y-24139901D01*
X4231539Y-24096329D01*
X4700443Y-23627425D01*
X4700442Y-23627424D01*
X4602731Y-23556432D01*
X4441447Y-23474252D01*
X4441444Y-23474251D01*
X4269293Y-23418317D01*
X4090506Y-23390000D01*
X3909494Y-23390000D01*
X3730706Y-23418317D01*
X3558555Y-23474251D01*
X3558552Y-23474252D01*
X3397265Y-23556434D01*
X3299556Y-23627423D01*
X3299556Y-23627425D01*
X3768461Y-24096329D01*
X3692993Y-24139901D01*
X3599901Y-24232993D01*
X3556329Y-24308460D01*
X3087425Y-23839556D01*
X3087423Y-23839556D01*
X3016434Y-23937265D01*
X2934252Y-24098552D01*
X2934251Y-24098555D01*
X2878317Y-24270706D01*
X2850000Y-24449493D01*
X500500Y-24449493D01*
X500500Y-12449493D01*
X2850000Y-12449493D01*
X2850000Y-12630506D01*
X2878317Y-12809293D01*
X2934251Y-12981444D01*
X2934252Y-12981447D01*
X3016432Y-13142731D01*
X3087424Y-13240442D01*
X3087425Y-13240443D01*
X3556329Y-12771538D01*
X3599901Y-12847007D01*
X3692993Y-12940099D01*
X3768460Y-12983670D01*
X3299555Y-13452574D01*
X3397268Y-13523567D01*
X3558552Y-13605747D01*
X3558555Y-13605748D01*
X3730706Y-13661682D01*
X3909494Y-13690000D01*
X4090506Y-13690000D01*
X4269293Y-13661682D01*
X4441444Y-13605748D01*
X4441447Y-13605747D01*
X4602730Y-13523568D01*
X4700442Y-13452574D01*
X4700443Y-13452574D01*
X4231539Y-12983670D01*
X4307007Y-12940099D01*
X4400099Y-12847007D01*
X4443670Y-12771539D01*
X4912574Y-13240443D01*
X4912574Y-13240442D01*
X4983568Y-13142730D01*
X5065747Y-12981447D01*
X5065748Y-12981444D01*
X5121682Y-12809293D01*
X5150000Y-12630506D01*
X5150000Y-12449493D01*
X5121682Y-12270706D01*
X5065748Y-12098555D01*
X5065747Y-12098552D01*
X4983567Y-11937268D01*
X4912574Y-11839556D01*
X4912574Y-11839555D01*
X4443670Y-12308460D01*
X4400099Y-12232993D01*
X4307007Y-12139901D01*
X4231539Y-12096329D01*
X4700443Y-11627425D01*
X4700442Y-11627424D01*
X4602731Y-11556432D01*
X4441447Y-11474252D01*
X4441444Y-11474251D01*
X4269293Y-11418317D01*
X4090506Y-11390000D01*
X3909494Y-11390000D01*
X3730706Y-11418317D01*
X3558555Y-11474251D01*
X3558552Y-11474252D01*
X3397265Y-11556434D01*
X3299556Y-11627423D01*
X3299556Y-11627425D01*
X3768461Y-12096329D01*
X3692993Y-12139901D01*
X3599901Y-12232993D01*
X3556329Y-12308460D01*
X3087425Y-11839556D01*
X3087423Y-11839556D01*
X3016434Y-11937265D01*
X2934252Y-12098552D01*
X2934251Y-12098555D01*
X2878317Y-12270706D01*
X2850000Y-12449493D01*
X500500Y-12449493D01*
X500500Y-2893713D01*
X1649500Y-2893713D01*
X1649500Y-3106287D01*
X1682754Y-3316243D01*
X1717566Y-3423384D01*
X1748444Y-3518414D01*
X1844951Y-3707820D01*
X1969890Y-3879786D01*
X2120213Y-4030109D01*
X2292179Y-4155048D01*
X2292181Y-4155049D01*
X2292184Y-4155051D01*
X2481588Y-4251557D01*
X2683757Y-4317246D01*
X2893713Y-4350500D01*
X2893714Y-4350500D01*
X3106286Y-4350500D01*
X3106287Y-4350500D01*
X3316243Y-4317246D01*
X3518412Y-4251557D01*
X3707816Y-4155051D01*
X3729789Y-4139086D01*
X3879786Y-4030109D01*
X3879788Y-4030106D01*
X3879792Y-4030104D01*
X4030104Y-3879792D01*
X4030106Y-3879788D01*
X4030109Y-3879786D01*
X4155048Y-3707820D01*
X4155047Y-3707820D01*
X4155051Y-3707816D01*
X4251557Y-3518412D01*
X4317246Y-3316243D01*
X4350500Y-3106287D01*
X4350500Y-2893713D01*
X4317246Y-2683757D01*
X4251557Y-2481588D01*
X4155051Y-2292184D01*
X4155049Y-2292181D01*
X4155048Y-2292179D01*
X4030109Y-2120213D01*
X3879786Y-1969890D01*
X3707820Y-1844951D01*
X3518414Y-1748444D01*
X3518413Y-1748443D01*
X3518412Y-1748443D01*
X3316243Y-1682754D01*
X3316241Y-1682753D01*
X3316240Y-1682753D01*
X3154957Y-1657208D01*
X3106287Y-1649500D01*
X2893713Y-1649500D01*
X2845042Y-1657208D01*
X2683760Y-1682753D01*
X2481585Y-1748444D01*
X2292179Y-1844951D01*
X2120213Y-1969890D01*
X1969890Y-2120213D01*
X1844951Y-2292179D01*
X1748444Y-2481585D01*
X1682753Y-2683760D01*
X1666574Y-2785913D01*
X1649500Y-2893713D01*
X500500Y-2893713D01*
X500500Y-624500D01*
X520185Y-557461D01*
X572989Y-511706D01*
X624500Y-500500D01*
X74375500Y-500500D01*
X74442539Y-520185D01*
G37*
%TD.AperFunction*%
%TD*%
M02*
